<?xml version="1.0" encoding="UTF-8"?>
<svg version="1.1" xmlns="http://www.w3.org/2000/svg" width="500" height="500">
<path d="M0 0 C1.20882843 -0.00511093 2.41765686 -0.01022186 3.66311646 -0.01548767 C6.96692781 -0.02698229 10.27048777 -0.02946112 13.57430148 -0.02692437 C16.33763704 -0.02585186 19.10094966 -0.03074515 21.86428028 -0.03552979 C28.38593751 -0.04661028 34.90753714 -0.04707053 41.42919922 -0.04101562 C48.14573909 -0.03497547 54.8620695 -0.04729111 61.57857364 -0.06858569 C67.35626444 -0.08622678 73.1338887 -0.09219914 78.91160542 -0.08894795 C82.3574993 -0.08713904 85.80324372 -0.08973195 89.24911308 -0.10366249 C93.09324171 -0.11862279 96.93710543 -0.10924877 100.78125 -0.09765625 C101.91549911 -0.10529999 103.04974823 -0.11294373 104.21836853 -0.12081909 C111.99648329 -0.06899327 118.03766855 0.78108492 123.76782227 6.5246582 C128.53174848 11.63039078 129.38273863 17.21509778 129.20922852 24.00512695 C128.54060147 29.9816241 126.14805241 34.95861247 121.95532227 39.2746582 C117.63299344 42.30028838 113.98322654 43.40161705 108.75384521 43.39491272 C107.92375946 43.39628738 107.09367371 43.39766205 106.23843384 43.39907837 C105.33644257 43.39548309 104.43445129 43.39188782 103.50512695 43.38818359 C102.07047592 43.38840263 102.07047592 43.38840263 100.60684204 43.3886261 C97.44693734 43.38792969 94.28709166 43.38014994 91.12719727 43.37231445 C88.93573031 43.37044931 86.74426293 43.36902586 84.55279541 43.36802673 C78.7857142 43.36420914 73.01865818 43.35438529 67.25158691 43.34332275 C61.36637717 43.33309236 55.48116334 43.32852562 49.59594727 43.32348633 C38.0490612 43.31276237 26.50219383 43.29569501 14.95532227 43.2746582 C15.02670536 44.18351524 15.09808846 45.09237228 15.17163467 46.02877045 C15.83885184 55.12570539 16.08243789 64.14321308 16.0246582 73.26879883 C16.01940645 74.69805762 16.01458268 76.12731803 16.01014709 77.55657959 C15.99668064 81.38665609 15.97624047 85.21666173 15.95358181 89.0466938 C15.93961094 91.44573152 15.92701026 93.84477274 15.91483307 96.24382019 C15.87200182 104.62914284 15.8227731 113.01440342 15.76831055 121.3996582 C15.71787774 129.19497988 15.68276057 136.99027394 15.65437675 144.78570414 C15.6291483 151.50630599 15.59255141 158.22678573 15.54729104 164.94728231 C15.52056738 168.94967233 15.4985292 172.951953 15.48827362 176.954422 C15.4783156 180.7106803 15.45420052 184.46658722 15.41934013 188.2226944 C15.40405889 190.25007675 15.40336184 192.27755275 15.40315247 194.30499268 C15.32932799 200.72700438 15.10643134 205.62218945 11.95532227 211.2746582 C11.62532227 211.9346582 11.29532227 212.5946582 10.95532227 213.2746582 C10.29532227 213.2746582 9.63532227 213.2746582 8.95532227 213.2746582 C8.74907227 213.8727832 8.54282227 214.4709082 8.33032227 215.0871582 C6.43653104 218.10000787 4.16459253 218.87060246 0.95532227 220.2746582 C0.29532227 220.6046582 -0.36467773 220.9346582 -1.04467773 221.2746582 C-7.88621287 222.05037129 -13.41355088 221.36782138 -19.04467773 217.2746582 C-25.12420154 211.95335165 -27.72722588 205.53518017 -28.32232475 197.54835701 C-28.48099575 192.87311895 -28.46214871 188.19828915 -28.44873047 183.52099609 C-28.45443928 181.72310463 -28.46140551 179.92521678 -28.4695282 178.12733459 C-28.48741781 173.26366225 -28.48629918 168.40017074 -28.48058581 163.53647542 C-28.47748802 159.46847095 -28.48359295 155.40050091 -28.48962456 151.33250135 C-28.50365427 141.73221766 -28.50212131 132.13202298 -28.49072266 122.53173828 C-28.47924158 112.64382304 -28.49332053 102.75617905 -28.52011913 92.86829954 C-28.54230411 84.36270496 -28.54890724 75.85719534 -28.54304272 67.35157388 C-28.53967881 62.27862355 -28.54205063 57.20584708 -28.55929375 52.13292122 C-28.57480553 47.36146212 -28.57076048 42.5904037 -28.5519886 37.81896019 C-28.54831449 36.07352905 -28.55137664 34.32806793 -28.56187439 32.58266449 C-28.6719887 12.75217269 -28.6719887 12.75217269 -22.66821957 5.64529514 C-16.04830028 -0.40959483 -8.41714696 -0.01835191 0 0 Z " fill="#EF3D43" transform="translate(163.044677734375,84.725341796875)"/>
<path d="M0 0 C1.15242188 0.00902344 2.30484375 0.01804687 3.4921875 0.02734375 C4.36101562 0.03894531 5.22984375 0.05054687 6.125 0.0625 C6.62 2.0425 6.62 2.0425 7.125 4.0625 C4.84159878 5.20420061 3.35323219 5.22945888 0.8125 5.375 C-5.71487833 5.96236931 -11.69080212 7.98278878 -17.875 10.0625 C-18.99390625 10.43503906 -20.1128125 10.80757812 -21.265625 11.19140625 C-22.12671875 11.47886719 -22.9878125 11.76632813 -23.875 12.0625 C-23.875 12.7225 -23.875 13.3825 -23.875 14.0625 C-25.52502828 15.41636936 -27.1924387 16.74928142 -28.875 18.0625 C-29.205 18.7225 -29.535 19.3825 -29.875 20.0625 C-30.535 20.0625 -31.195 20.0625 -31.875 20.0625 C-32.00777344 20.61808594 -32.14054687 21.17367187 -32.27734375 21.74609375 C-32.6867301 23.33280032 -33.13969941 24.90871521 -33.62890625 26.47265625 C-36.56132689 36.0915626 -37.51259422 43.43752019 -32.875 52.625 C-32.318125 53.61628906 -31.76125 54.60757813 -31.1875 55.62890625 C-29.875 58.0625 -29.875 58.0625 -29.875 60.0625 C-29.215 60.0625 -28.555 60.0625 -27.875 60.0625 C-27.875 60.7225 -27.875 61.3825 -27.875 62.0625 C-27.215 62.0625 -26.555 62.0625 -25.875 62.0625 C-25.17246094 62.94679687 -24.46992188 63.83109375 -23.74609375 64.7421875 C-20.69113816 68.54168417 -17.11077983 70.74626468 -12.9375 73.1875 C-12.1626123 73.65124023 -11.38772461 74.11498047 -10.58935547 74.59277344 C-2.48354309 79.39372344 5.80656737 83.86177821 14.09765625 88.33203125 C18.92762561 90.94120133 23.67901096 93.65352402 28.39453125 96.46484375 C29.96058918 97.38117808 31.53484362 98.28443626 33.13037109 99.1484375 C38.71341363 102.17374339 43.94214885 105.52202678 49.125 109.1875 C49.88683594 109.71214844 50.64867187 110.23679687 51.43359375 110.77734375 C52.15675781 111.28652344 52.87992187 111.79570312 53.625 112.3203125 C54.59953125 113.00311279 54.59953125 113.00311279 55.59375 113.69970703 C57.125 115.0625 57.125 115.0625 58.125 118.0625 C58.74375 118.371875 59.3625 118.68125 60 119 C62.56112005 120.28056002 63.61979312 121.65416899 65.125 124.0625 C65.125 124.7225 65.125 125.3825 65.125 126.0625 C65.785 126.0625 66.445 126.0625 67.125 126.0625 C76.91753778 138.45705496 78.75880342 153.81785732 77.125 169.0625 C76.27344583 173.55951704 74.85583373 177.82813891 73.125 182.0625 C72.465 182.0625 71.805 182.0625 71.125 182.0625 C70.9703125 182.866875 70.9703125 182.866875 70.8125 183.6875 C69.94407303 186.68752044 68.56879704 189.3004535 67.125 192.0625 C66.465 192.0625 65.805 192.0625 65.125 192.0625 C65.125 192.7225 65.125 193.3825 65.125 194.0625 C64.465 194.0625 63.805 194.0625 63.125 194.0625 C62.87878906 194.64257812 62.63257813 195.22265625 62.37890625 195.8203125 C56.62185372 206.11485503 41.75297336 214.15612735 30.71484375 217.51171875 C29.16766577 217.93778675 27.61667729 218.35021679 26.0625 218.75 C25.24265625 218.96350098 24.4228125 219.17700195 23.578125 219.39697266 C15.72934027 221.3363526 5.96362644 223.67537548 -1.875 221.0625 C-1.545 219.7425 -1.215 218.4225 -0.875 217.0625 C0.83042969 216.85947266 0.83042969 216.85947266 2.5703125 216.65234375 C16.9236052 214.73971636 28.86582351 211.18087938 38.41796875 199.484375 C44.44273851 190.93664674 44.78573866 181.24276969 44.125 171.0625 C42.32937552 161.08004529 35.92628023 154.07976653 28.125 148.0625 C27.35671875 147.44632813 26.5884375 146.83015625 25.796875 146.1953125 C18.74325404 140.76782571 11.28344413 136.97789986 3.31689453 133.13085938 C-8.06415003 127.58358259 -19.09574804 121.47318996 -29.9375 114.9375 C-30.8766626 114.37595215 -31.8158252 113.8144043 -32.78344727 113.23583984 C-39.15087268 109.34567114 -45.43490456 105.20278246 -50.875 100.0625 C-50.875 99.4025 -50.875 98.7425 -50.875 98.0625 C-51.74511719 97.69898438 -51.74511719 97.69898438 -52.6328125 97.328125 C-60.31311712 92.99290079 -65.98033429 82.56781717 -68.39306641 74.35498047 C-71.46179826 59.75751738 -69.87375707 45.00927626 -62.1953125 32.27734375 C-58.92223569 27.33863452 -55.31479398 22.98603886 -50.875 19.0625 C-50.215 19.0625 -49.555 19.0625 -48.875 19.0625 C-48.875 18.4025 -48.875 17.7425 -48.875 17.0625 C-47.08203125 15.66015625 -47.08203125 15.66015625 -44.6875 14.125 C-43.91019531 13.62097656 -43.13289063 13.11695312 -42.33203125 12.59765625 C-41.52121094 12.09105469 -40.71039063 11.58445312 -39.875 11.0625 C-38.64716797 10.28712891 -38.64716797 10.28712891 -37.39453125 9.49609375 C-26.50553722 3.30034056 -12.45711821 -0.12711345 0 0 Z " fill="#EE3F45" transform="translate(367.875,84.9375)"/>
<path d="M0 0 C4.43605768 3.56813335 7.6007654 7.60322508 8.28269958 13.40526962 C8.40479982 16.40249195 8.42814357 19.38649967 8.41992188 22.38623047 C8.42839142 23.52517761 8.43686096 24.66412476 8.44558716 25.83758545 C8.46896033 29.59756682 8.46997916 33.35713902 8.46875 37.1171875 C8.47585152 39.73503788 8.48355051 42.3528867 8.49182129 44.97073364 C8.50641169 50.45659705 8.50701596 55.94234677 8.50097656 61.42822266 C8.49433891 67.75522127 8.51719407 74.08163644 8.55429029 80.40851676 C8.58876555 86.51145121 8.59531788 92.61411136 8.59120178 98.71713638 C8.59289346 101.30625267 8.60254045 103.89537661 8.62034607 106.48443222 C8.64252593 110.10841648 8.63283644 113.73100024 8.61523438 117.35498047 C8.62849762 118.42017914 8.64176086 119.48537781 8.65542603 120.58285522 C8.57980293 127.2972076 7.40982822 131.83097061 3 137 C-1.39212171 140.80650548 -5.32947347 141.72947947 -11 142 C-12.06927734 142.11214844 -12.06927734 142.11214844 -13.16015625 142.2265625 C-19.66045087 142.66220835 -24.66445582 140.67538385 -30 137 C-33.98806502 132.23377595 -35.11858701 128.3207698 -35.14044189 122.23820496 C-35.14615204 121.28360886 -35.15186218 120.32901276 -35.15774536 119.3454895 C-35.15886322 118.30488373 -35.15998108 117.26427795 -35.16113281 116.19213867 C-35.16609772 115.09089157 -35.17106262 113.98964447 -35.17617798 112.85502625 C-35.19079143 109.20933407 -35.19760014 105.56368541 -35.203125 101.91796875 C-35.20887695 99.3845469 -35.21463468 96.85112507 -35.22039795 94.31770325 C-35.22956268 89.6830993 -35.23586404 85.04850841 -35.2388947 80.41389769 C-35.24337334 73.6034094 -35.26091568 66.79312202 -35.2898953 59.9826948 C-35.31415997 54.07417572 -35.32184111 48.16570641 -35.32357025 42.25713539 C-35.32659616 39.74814065 -35.33462256 37.23914675 -35.34775543 34.73018456 C-35.36482465 31.21865016 -35.36293326 27.70760407 -35.35644531 24.19604492 C-35.3656601 23.16151184 -35.37487488 22.12697876 -35.3843689 21.06109619 C-35.33311753 12.19836395 -33.15111834 6.4511729 -27 0 C-19.29579675 -5.2189764 -7.99224077 -3.82038278 0 0 Z " fill="#EF3F45" transform="translate(91,164)"/>
<path d="M0 0 C6.9131743 3.54933994 10.88207089 8.92140771 13.6875 16.0625 C16.44359264 24.76029885 15.22130689 31.3826953 11.25 39.5 C7.0881509 45.63696393 2.65122375 49.46992636 -4.6875 51.1875 C-13.56575713 52.09344461 -19.37064838 50.41956775 -26.75 45.5 C-26.75 44.84 -26.75 44.18 -26.75 43.5 C-27.41 43.5 -28.07 43.5 -28.75 43.5 C-29.56837442 42.08671871 -30.37946219 40.66921654 -31.1875 39.25 C-31.63996094 38.46109375 -32.09242187 37.6721875 -32.55859375 36.859375 C-35.67327998 30.69127505 -35.79754675 23.34281398 -33.99609375 16.734375 C-30.80823648 8.38343911 -26.60331254 3.6927336 -18.75 -0.5 C-12.66727478 -2.52757507 -5.98065751 -2.33266195 0 0 Z " fill="#EE4148" transform="translate(87.75,85.5)"/>
<path d="M0 0 C4.89775101 3.8790188 9.31146987 8.52820165 10.29956055 14.94555664 C10.43842281 17.09830112 10.46613516 19.21805665 10.4375 21.375 C10.43427734 22.12579834 10.43105469 22.87659668 10.42773438 23.65014648 C10.28411648 29.34100576 9.24761828 33.23006065 6 38 C5.34 38 4.68 38 4 38 C3.67 38.99 3.34 39.98 3 41 C1.44140625 42.1328125 1.44140625 42.1328125 -0.4375 43.125 C-1.05496094 43.45757812 -1.67242187 43.79015625 -2.30859375 44.1328125 C-8.13903949 47.12209415 -14.39964548 46.66110708 -20.6875 45.0625 C-27.25178758 40.97530207 -32.07735108 35.56686084 -34 28 C-34.728832 20.37092742 -34.26865403 13.9458898 -31 7 C-30.34 7 -29.68 7 -29 7 C-28.773125 6.4225 -28.54625 5.845 -28.3125 5.25 C-26.0982842 1.45420149 -23.15828941 -0.48520471 -19.1875 -2.25 C-12.30867624 -3.86854677 -6.17819814 -3.50921654 0 0 Z " fill="#EF3E44" transform="translate(328,233)"/>
<path d="M0 0 C1.06734375 -0.01160156 1.06734375 -0.01160156 2.15625 -0.0234375 C5.92429832 -0.00937762 8.80489203 0.15321039 12 2.25 C12 2.91 12 3.57 12 4.25 C12.66 4.25 13.32 4.25 14 4.25 C14 4.91 14 5.57 14 6.25 C14.66 6.25 15.32 6.25 16 6.25 C22.07461986 12.89411547 22.42163929 18.73812833 22.3359375 27.48828125 C21.90084078 32.36035261 20.52280441 36.09413023 18 40.25 C17.34 40.25 16.68 40.25 16 40.25 C16 40.91 16 41.57 16 42.25 C15.34 42.25 14.68 42.25 14 42.25 C14 42.91 14 43.57 14 44.25 C7.49031515 49.20975989 0.97104987 49.152383 -7 48.25 C-13.16903363 46.53637955 -16.72319716 41.44418902 -20 36.25 C-20.37640625 35.66734375 -20.7528125 35.0846875 -21.140625 34.484375 C-23.39763328 28.61615347 -23.16720944 19.48153027 -21.0546875 13.6328125 C-19.83508365 11.66150313 -18.53796522 9.9812614 -17 8.25 C-16.56945312 7.67765625 -16.13890625 7.1053125 -15.6953125 6.515625 C-11.1021001 0.52447839 -7.30260136 -0.0793761 0 0 Z " fill="#EE4046" transform="translate(421,103.75)"/>
<path d="M0 0 C1.91796875 1.1015625 1.91796875 1.1015625 4.73046875 3.1015625 C4.73046875 4.7515625 4.73046875 6.4015625 4.73046875 8.1015625 C2.91796875 8.7265625 2.91796875 8.7265625 0.73046875 9.1015625 C-0.25953125 8.4415625 -1.24953125 7.7815625 -2.26953125 7.1015625 C-8.3258724 5.96054584 -8.3258724 5.96054584 -14.26953125 7.1015625 C-14.26953125 8.7515625 -14.26953125 10.4015625 -14.26953125 12.1015625 C-13.1609375 12.47667969 -12.05234375 12.85179687 -10.91015625 13.23828125 C-9.4463212 13.75437694 -7.98279545 14.27135051 -6.51953125 14.7890625 C-5.78992188 15.03333984 -5.0603125 15.27761719 -4.30859375 15.52929688 C0.33683629 17.19742857 3.0574085 18.73372694 5.73046875 23.1015625 C6.4095461 27.09114196 5.90933129 28.76938921 3.98046875 32.3515625 C1.75373814 35.07312214 0.91715728 35.91949171 -2.26953125 37.1015625 C-9.49921917 37.77962093 -17.07049631 38.28230699 -23.26953125 34.1015625 C-24.26953125 31.5390625 -24.26953125 31.5390625 -24.26953125 29.1015625 C-23.93953125 28.4415625 -23.60953125 27.7815625 -23.26953125 27.1015625 C-20.64095643 27.55217533 -18.38912733 28.04661295 -15.95703125 29.1640625 C-12.22579431 30.46565678 -9.21851844 30.29577498 -5.26953125 30.1015625 C-4.60953125 29.7715625 -3.94953125 29.4415625 -3.26953125 29.1015625 C-3.76453125 26.6265625 -3.76453125 26.6265625 -4.26953125 24.1015625 C-5.1615625 23.83601563 -6.05359375 23.57046875 -6.97265625 23.296875 C-8.143125 22.94367188 -9.31359375 22.59046875 -10.51953125 22.2265625 C-11.6796875 21.87851562 -12.83984375 21.53046875 -14.03515625 21.171875 C-20.69101885 18.9693311 -20.69101885 18.9693311 -23.26953125 15.1015625 C-23.81506612 12.03508229 -23.79810642 9.17053465 -23.26953125 6.1015625 C-17.91079494 -1.09445483 -8.36542249 -3.31161303 0 0 Z " fill="#E14C4E" transform="translate(283.26953125,358.8984375)"/>
<path d="M0 0 C2.5 0.125 2.5 0.125 3.5 1.125 C3.57244053 3.14464199 3.58377188 5.16667124 3.5625 7.1875 C3.55347656 8.29222656 3.54445312 9.39695312 3.53515625 10.53515625 C3.52355469 11.38980469 3.51195312 12.24445313 3.5 13.125 C4.49 12.465 5.48 11.805 6.5 11.125 C11.09324221 10.46553618 15.16437789 10.21286783 19.0625 12.875 C21.20272407 16.22491594 21.62628201 19.23550724 21.6328125 23.1640625 C21.63474609 24.28167969 21.63474609 24.28167969 21.63671875 25.421875 C21.63285156 26.19015625 21.62898438 26.9584375 21.625 27.75 C21.63080078 28.91402344 21.63080078 28.91402344 21.63671875 30.1015625 C21.62670133 35.87159734 21.62670133 35.87159734 20.5 38.125 C18.50045254 38.16754356 16.49958364 38.16580783 14.5 38.125 C12.98578999 36.61078999 13.28690144 35.20027232 13.18359375 33.08984375 C13.14169922 32.28095703 13.09980469 31.47207031 13.05664062 30.63867188 C13.01732422 29.78853516 12.97800781 28.93839844 12.9375 28.0625 C12.89431641 27.20849609 12.85113281 26.35449219 12.80664062 25.47460938 C12.70023298 23.35827963 12.59958269 21.24166187 12.5 19.125 C8.91672247 18.12282936 8.91672247 18.12282936 5.5 19.125 C4.10928794 23.29713619 4.11327927 27.4928057 3.89453125 31.8515625 C3.60159485 37.02340515 3.60159485 37.02340515 2.5 38.125 C0 38.25 0 38.25 -2.5 38.125 C-4.28830448 36.33669552 -3.62848711 33.92918848 -3.63894653 31.54858398 C-3.6369223 30.76942627 -3.63489807 29.99026855 -3.6328125 29.1875 C-3.63376923 28.392229 -3.63472595 27.59695801 -3.63571167 26.77758789 C-3.63639343 25.0929354 -3.63453943 23.40828029 -3.63037109 21.72363281 C-3.62502275 19.13600803 -3.63031619 16.54855684 -3.63671875 13.9609375 C-3.63605797 12.32812461 -3.6347768 10.69531184 -3.6328125 9.0625 C-3.63483673 8.28334229 -3.63686096 7.50418457 -3.63894653 6.70141602 C-3.61029631 0.18051482 -3.61029631 0.18051482 0 0 Z " fill="#D35758" transform="translate(173.5,357.875)"/>
<path d="M0 0 C4.12224783 2.06112391 6.31747327 3.74063053 8 8 C8.69128923 13.32131939 8.63165723 17.71412636 6.25 22.5625 C3.45855141 25.5865693 1.49672265 26.78521352 -2.5859375 27.37109375 C-11.04733486 27.57255559 -11.04733486 27.57255559 -14.5625 24.8125 C-17.90189232 20.95935501 -18.85304349 18.61652164 -19.3125 13.5625 C-18.90484834 8.91527102 -17.46489844 5.77008562 -14.5 2.1875 C-10.46235872 -1.00896602 -4.86212065 -0.55199815 0 0 Z M-9.8125 7.5625 C-11.44489575 10.91320706 -11.39469235 13.31620474 -11 17 C-9.64114884 19.40083438 -9.64114884 19.40083438 -8 21 C-4.535 20.505 -4.535 20.505 -1 20 C1.02797315 15.94405371 1.23599782 13.37353074 0 9 C-1.12640605 7.03959519 -1.12640605 7.03959519 -3 6 C-6.12528712 5.45307475 -7.38311983 5.46820675 -9.8125 7.5625 Z " fill="#DB4B4B" transform="translate(248,369)"/>
<path d="M0 0 C3.5609494 1.92884759 4.66832865 3.25768794 6.3125 6.9375 C6.94943145 9.77474007 7.24776557 12.10940164 7 15 C6 16 6 16 2.40234375 16.09765625 C0.91403133 16.0909822 -0.57426432 16.07902183 -2.0625 16.0625 C-2.82111328 16.05798828 -3.57972656 16.05347656 -4.36132812 16.04882812 C-6.24091871 16.0370068 -8.12046899 16.01907078 -10 16 C-9.67 17.32 -9.34 18.64 -9 20 C-3.87416389 20.10251672 0.94997778 20.03590199 6 19 C6.25 21.3125 6.25 21.3125 6 24 C2.89759367 27.08770298 0.41572275 27.43204107 -3.875 27.4375 C-9.01874281 27.29949714 -12.18948571 26.71023759 -16 23 C-18.6527418 18.77972895 -18.56417657 13.83957718 -18 9 C-14.51062279 0.73568556 -8.4331591 -1.35929209 0 0 Z M-10 8 C-10 8.99 -10 9.98 -10 11 C-6.7 11 -3.4 11 0 11 C-0.57125354 7.25724788 -0.57125354 7.25724788 -2 6 C-6.49885769 5.53277305 -6.49885769 5.53277305 -10 8 Z " fill="#DE5759" transform="translate(133,369)"/>
<path d="M0 0 C4.12224783 2.06112391 6.31747327 3.74063053 8 8 C8.69128923 13.32131939 8.63165723 17.71412636 6.25 22.5625 C3.45855141 25.5865693 1.49672265 26.78521352 -2.5859375 27.37109375 C-11.04733486 27.57255559 -11.04733486 27.57255559 -14.5625 24.8125 C-18.37238912 20.4164741 -19.20732104 17.75171031 -18.875 12 C-18.32005181 7.61264488 -17.34853899 5.06152137 -14 2 C-9.51225011 -0.69839119 -5.1005292 -0.6596899 0 0 Z M-9.8125 7.5625 C-11.44489575 10.91320706 -11.39469235 13.31620474 -11 17 C-9.64114884 19.40083438 -9.64114884 19.40083438 -8 21 C-3.253662 20.8582699 -3.253662 20.8582699 0.5 18.375 C1.3528841 14.3238005 1.01863075 10.57887767 -1.25 7.0625 C-4.4577789 5.11491995 -6.95055557 5.09530653 -9.8125 7.5625 Z " fill="#EA4243" transform="translate(311,369)"/>
<path d="M0 0 C0.78375 0.04125 1.5675 0.0825 2.375 0.125 C2.375 0.785 2.375 1.445 2.375 2.125 C3.014375 1.795 3.65375 1.465 4.3125 1.125 C8.26585866 -0.16589262 12.2906616 -0.91983075 16.375 0.125 C19.03788939 2.31336066 20.22474532 4.0451072 20.70385742 7.48852539 C20.80522963 10.295029 20.77273023 13.06808433 20.6875 15.875 C20.67783203 16.84566406 20.66816406 17.81632812 20.65820312 18.81640625 C20.54336021 25.95663979 20.54336021 25.95663979 19.375 27.125 C16.875 27.25 16.875 27.25 14.375 27.125 C12.86078999 25.61078999 13.16190144 24.20027232 13.05859375 22.08984375 C13.01669922 21.28095703 12.97480469 20.47207031 12.93164062 19.63867188 C12.89232422 18.78853516 12.85300781 17.93839844 12.8125 17.0625 C12.76931641 16.20849609 12.72613281 15.35449219 12.68164062 14.47460938 C12.57523298 12.35827963 12.47458269 10.24166187 12.375 8.125 C8.92061755 7.03364479 8.92061755 7.03364479 5.6015625 8.0546875 C3.7020454 11.26087879 3.83934787 14.61864721 3.75 18.25 C3.47972973 26.02027027 3.47972973 26.02027027 2.375 27.125 C0.37541636 27.16580783 -1.62545254 27.16754356 -3.625 27.125 C-5.62649936 23.12200128 -4.80985209 18.02583269 -4.8125 13.625 C-4.82474609 12.55378906 -4.83699219 11.48257812 -4.84960938 10.37890625 C-4.85154297 9.35667969 -4.85347656 8.33445312 -4.85546875 7.28125 C-4.85957764 6.34087891 -4.86368652 5.40050781 -4.86791992 4.43164062 C-4.50097831 0.94735486 -3.45392542 0.16447264 0 0 Z " fill="#E15F62" transform="translate(369.625,368.875)"/>
<path d="M0 0 C2.5625 0.1875 2.5625 0.1875 4.5625 2.1875 C5.5525 1.5275 6.5425 0.8675 7.5625 0.1875 C11.91116829 -0.50123936 15.44280718 -0.62427729 19.0625 2 C21.21139121 5.13379968 21.68955103 7.64097391 21.6953125 11.34765625 C21.69724609 12.5377832 21.69724609 12.5377832 21.69921875 13.75195312 C21.69535156 14.57630859 21.69148438 15.40066406 21.6875 16.25 C21.69330078 17.49233398 21.69330078 17.49233398 21.69921875 18.75976562 C21.69792969 19.55189453 21.69664062 20.34402344 21.6953125 21.16015625 C21.69418457 21.88468994 21.69305664 22.60922363 21.69189453 23.35571289 C21.5625 25.1875 21.5625 25.1875 20.5625 27.1875 C18.5825 27.1875 16.6025 27.1875 14.5625 27.1875 C14.0675 17.2875 14.0675 17.2875 13.5625 7.1875 C11.5825 7.1875 9.6025 7.1875 7.5625 7.1875 C4.74612964 10.00387036 5.14577873 12.84541968 5 16.625 C4.67931223 23.83706332 4.67931223 23.83706332 3.5625 27.1875 C1.56295254 27.23004356 -0.43791636 27.22830783 -2.4375 27.1875 C-4.18295605 25.44204395 -3.5677316 23.02625783 -3.5703125 20.65625 C-3.57160156 19.53605469 -3.57289063 18.41585938 -3.57421875 17.26171875 C-3.57035156 16.08222656 -3.56648437 14.90273438 -3.5625 13.6875 C-3.56636719 12.50800781 -3.57023438 11.32851563 -3.57421875 10.11328125 C-3.57292969 8.99308594 -3.57164062 7.87289063 -3.5703125 6.71875 C-3.56918457 5.68298828 -3.56805664 4.64722656 -3.56689453 3.58007812 C-3.39092481 0.3262983 -3.24865463 0.24989651 0 0 Z " fill="#E34D4F" transform="translate(203.4375,368.8125)"/>
<path d="M0 0 C1.19173828 0.00410889 2.38347656 0.00821777 3.61132812 0.01245117 C4.90425781 0.01438477 6.1971875 0.01631836 7.52929688 0.01831055 C8.5412915 0.02761597 8.5412915 0.02761597 9.57373047 0.03710938 C11.63456595 0.05534901 13.69495166 0.05761915 15.75585938 0.05737305 C25.86216911 0.10271541 25.86216911 0.10271541 28.14257812 1.24291992 C28.18529913 2.90903897 28.18321645 4.57674877 28.14257812 6.24291992 C27.14257812 7.24291992 27.14257812 7.24291992 24.41992188 7.34057617 C22.76669922 7.32317383 22.76669922 7.32317383 21.08007812 7.30541992 C19.97535156 7.29639648 18.870625 7.28737305 17.73242188 7.27807617 C16.87777344 7.26647461 16.023125 7.25487305 15.14257812 7.24291992 C15.15043335 8.59824829 15.15043335 8.59824829 15.15844727 9.98095703 C15.17545498 13.32243482 15.18801146 16.66386684 15.19750977 20.00537109 C15.20254913 21.45362065 15.20938066 22.90186509 15.21801758 24.35009766 C15.2301006 26.4276658 15.23581024 28.50516689 15.24023438 30.58276367 C15.2480896 32.46016235 15.2480896 32.46016235 15.25610352 34.37548828 C15.14257812 37.24291992 15.14257812 37.24291992 14.14257812 38.24291992 C11.64257812 38.36791992 11.64257812 38.36791992 9.14257812 38.24291992 C8.14257812 37.24291992 8.14257812 37.24291992 8.02905273 34.37548828 C8.03428955 33.12388916 8.03952637 31.87229004 8.04492188 30.58276367 C8.04633682 29.91829727 8.04775177 29.25383087 8.04920959 28.56922913 C8.05482294 26.43958093 8.06737759 24.31003653 8.08007812 22.18041992 C8.08509141 20.73966623 8.08965461 19.29891089 8.09375 17.8581543 C8.10479668 14.3197089 8.12207021 10.78132453 8.14257812 7.24291992 C4.18257812 7.24291992 0.22257812 7.24291992 -3.85742188 7.24291992 C-4.18742187 5.59291992 -4.51742187 3.94291992 -4.85742188 2.24291992 C-2.85742188 0.24291992 -2.85742188 0.24291992 0 0 Z " fill="#E94243" transform="translate(85.857421875,357.757080078125)"/>
<path d="M0 0 C0.33 0 0.66 0 1 0 C1 62.37 1 124.74 1 189 C1.66 189 2.32 189 3 189 C3.33 192.3 3.66 195.6 4 199 C-0.49368448 193.00842069 -1.30171464 187.53753397 -1.24723816 180.19978333 C-1.24965257 179.44525098 -1.25206699 178.69071864 -1.25455457 177.91332167 C-1.26016099 175.4015159 -1.25155183 172.88996792 -1.24291992 170.37817383 C-1.24399354 168.57084586 -1.24593341 166.76351823 -1.24867249 164.95619202 C-1.25351019 160.05976574 -1.24587923 155.16343092 -1.23571944 150.2670157 C-1.22692409 145.14128365 -1.22869666 140.01555434 -1.2290802 134.88981628 C-1.22814441 126.28598503 -1.21947069 117.68218911 -1.20581055 109.07836914 C-1.19007098 99.12798545 -1.18481301 89.17764039 -1.1855461 79.22724515 C-1.18615615 69.65430084 -1.1810538 60.08136911 -1.17275429 50.50842857 C-1.16922198 46.43395578 -1.16739112 42.35948745 -1.16686058 38.2850132 C-1.16585701 33.49074194 -1.15975923 28.69650319 -1.14969444 23.90224266 C-1.14677084 22.14139378 -1.14554379 20.38054116 -1.14612198 18.61968994 C-1.14661191 16.21951385 -1.14096447 13.81942912 -1.13371277 11.41926575 C-1.13526137 10.71975746 -1.13680997 10.02024918 -1.1384055 9.29954368 C-1.12216694 6.05332708 -0.99376085 3.10532409 0 0 Z " fill="#E1727A" transform="translate(136,98)"/>
<path d="M0 0 C1.875 1.8125 1.875 1.8125 1.9921875 4.42578125 C1.95351562 5.21339844 1.91484375 6.00101562 1.875 6.8125 C0.61042969 6.66941406 0.61042969 6.66941406 -0.6796875 6.5234375 C-1.77539062 6.41257812 -2.87109375 6.30171875 -4 6.1875 C-5.09054688 6.07148438 -6.18109375 5.95546875 -7.3046875 5.8359375 C-8.23539063 5.82820313 -9.16609375 5.82046875 -10.125 5.8125 C-12.31439909 7.59357249 -12.31439909 7.59357249 -12.390625 9.90625 C-12.38546875 10.7003125 -12.3803125 11.494375 -12.375 12.3125 C-12.38015625 13.1065625 -12.3853125 13.900625 -12.390625 14.71875 C-12.31439909 17.03142751 -12.31439909 17.03142751 -10.125 18.8125 C-7.21824817 18.83418637 -7.21824817 18.83418637 -4 18.4375 C-2.90429688 18.32664062 -1.80859375 18.21578125 -0.6796875 18.1015625 C0.16335937 18.00617188 1.00640625 17.91078125 1.875 17.8125 C2.125 20.125 2.125 20.125 1.875 22.8125 C-0.31508922 25.21266972 -1.75304919 25.75570971 -4.96484375 26.24609375 C-13.33188416 26.25664487 -13.33188416 26.25664487 -17.25 24.0625 C-21.22270468 19.29525438 -21.504715 15.52990422 -21.375 9.44140625 C-20.94894126 4.96113232 -19.35609306 2.89436966 -16.0625 0 C-10.73504842 -2.15365064 -5.34913951 -2.03267301 0 0 Z " fill="#E25152" transform="translate(164.125,370.1875)"/>
<path d="M0 0 C1.875 1.8125 1.875 1.8125 1.9921875 4.42578125 C1.95351563 5.21339844 1.91484375 6.00101562 1.875 6.8125 C0.61042969 6.66941406 0.61042969 6.66941406 -0.6796875 6.5234375 C-1.77539062 6.41257812 -2.87109375 6.30171875 -4 6.1875 C-5.09054687 6.07148438 -6.18109375 5.95546875 -7.3046875 5.8359375 C-8.23539062 5.82820313 -9.16609375 5.82046875 -10.125 5.8125 C-12.31439909 7.59357249 -12.31439909 7.59357249 -12.390625 9.90625 C-12.38546875 10.7003125 -12.3803125 11.494375 -12.375 12.3125 C-12.38015625 13.1065625 -12.3853125 13.900625 -12.390625 14.71875 C-12.31439909 17.03142751 -12.31439909 17.03142751 -10.125 18.8125 C-7.21824817 18.83418637 -7.21824817 18.83418637 -4 18.4375 C-2.90429688 18.32664062 -1.80859375 18.21578125 -0.6796875 18.1015625 C0.16335938 18.00617188 1.00640625 17.91078125 1.875 17.8125 C2.125 20.125 2.125 20.125 1.875 22.8125 C-0.31508922 25.21266972 -1.75304919 25.75570971 -4.96484375 26.24609375 C-13.33188416 26.25664487 -13.33188416 26.25664487 -17.25 24.0625 C-21.22270468 19.29525438 -21.504715 15.52990422 -21.375 9.44140625 C-20.94894126 4.96113232 -19.35609306 2.89436966 -16.0625 0 C-10.73504842 -2.15365064 -5.34913951 -2.03267301 0 0 Z " fill="#E14D4E" transform="translate(416.125,370.1875)"/>
<path d="M0 0 C1.20628008 2.33214148 2.1654738 4.49642139 3 7 C1.625 9.5 1.625 9.5 0 12 C-1.15811388 14.94729537 -1.15811388 14.94729537 -1 18 C-1.66 18.66 -2.32 19.32 -3 20 C-3.99 20 -4.98 20 -6 20 C-6 20.66 -6 21.32 -6 22 C-3.08235 23.9451 -1.37462715 24.45276317 2 25 C-3.28178837 30.69688004 -10.72921552 32.80114893 -18.0625 34.6875 C-19.29226563 35.00775146 -19.29226563 35.00775146 -20.546875 35.33447266 C-28.39565973 37.2738526 -38.16137356 39.61287548 -46 37 C-45.67 35.68 -45.34 34.36 -45 33 C-43.86304688 32.86464844 -42.72609375 32.72929687 -41.5546875 32.58984375 C-27.2013948 30.67721636 -15.25917649 27.11837938 -5.70703125 15.421875 C-2.26642457 10.54046506 -0.72810723 5.97047925 0 0 Z " fill="#E55559" transform="translate(412,269)"/>
<path d="M0 0 C2.97 0.495 2.97 0.495 6 1 C6.0246501 6.10863896 6.04283607 11.21724359 6.05493164 16.32592773 C6.05997204 18.06519168 6.0668043 19.80445136 6.07543945 21.54370117 C6.08751792 24.03825937 6.09323108 26.53276173 6.09765625 29.02734375 C6.10281754 29.80963852 6.10797882 30.59193329 6.11329651 31.39793396 C6.11349226 33.26567114 6.06199694 35.13329204 6 37 C5 38 5 38 2.5625 38.1875 C0 38 0 38 -2 36 C-2.19954194 33.52586821 -2.27989475 31.16612482 -2.265625 28.69140625 C-2.26753845 27.96888168 -2.2694519 27.24635712 -2.27142334 26.50193787 C-2.27278504 24.97288668 -2.26908964 23.44382393 -2.26074219 21.91479492 C-2.25005751 19.57509316 -2.2606295 17.23616193 -2.2734375 14.89648438 C-2.2721156 13.41145664 -2.26955257 11.92642938 -2.265625 10.44140625 C-2.26967346 9.7413295 -2.27372192 9.04125275 -2.27789307 8.31996155 C-2.24257654 4.65626704 -2.08995623 3.13493434 0 0 Z " fill="#E45052" transform="translate(353,358)"/>
<path d="M0 0 C2.97 0.495 2.97 0.495 6 1 C6.0246501 6.10863896 6.04283607 11.21724359 6.05493164 16.32592773 C6.05997204 18.06519168 6.0668043 19.80445136 6.07543945 21.54370117 C6.08751792 24.03825937 6.09323108 26.53276173 6.09765625 29.02734375 C6.10281754 29.80963852 6.10797882 30.59193329 6.11329651 31.39793396 C6.11349226 33.26567114 6.06199694 35.13329204 6 37 C5 38 5 38 1.9375 38.0625 C0.968125 38.041875 -0.00125 38.02125 -1 38 C-2.78101389 32.65695832 -2.18591237 26.86309289 -2.18530273 21.26660156 C-2.18749198 19.00827264 -2.20566769 16.7504302 -2.22460938 14.4921875 C-2.227543 13.05729334 -2.229528 11.62239685 -2.23046875 10.1875 C-2.23457764 8.88167969 -2.23868652 7.57585937 -2.24291992 6.23046875 C-2 3 -2 3 0 0 Z " fill="#E74344" transform="translate(325,358)"/>
<path d="M0 0 C3.39410026 2.26273351 3.83132277 3.21182049 5 7 C5.26006222 9.43574238 5.26006222 9.43574238 5.27415466 12.0271759 C5.28911736 13.50944923 5.28911736 13.50944923 5.30438232 15.02166748 C5.305047 16.09450989 5.30571167 17.16735229 5.30639648 18.27270508 C5.31472 19.4115062 5.32304352 20.55030731 5.33161926 21.72361755 C5.35571809 25.48895688 5.36449136 29.25412297 5.37109375 33.01953125 C5.3800601 35.63880973 5.38918194 38.25808769 5.39845276 40.87736511 C5.41580568 46.36917771 5.42267628 51.86094622 5.42553711 57.3527832 C5.4291702 63.68712264 5.45905359 70.02097692 5.50094169 76.35516816 C5.5399065 82.46288356 5.55113141 88.57036408 5.55226326 94.67819786 C5.55646633 97.27011432 5.56890396 99.86203117 5.58978081 102.45386696 C5.61668387 106.0827095 5.61187133 109.71021945 5.59936523 113.33911133 C5.61419952 114.40588104 5.62903381 115.47265076 5.64431763 116.57174683 C5.56727609 124.43590342 3.57019196 129.42980804 -2 135 C-2.99 135 -3.98 135 -5 135 C-5 134.34 -5 133.68 -5 133 C-4.01 133 -3.02 133 -2 133 C-2 131.68 -2 130.36 -2 129 C-1.01 129 -0.02 129 1 129 C1 127.35 1 125.7 1 124 C1.66 124 2.32 124 3 124 C2.91598511 109.01355807 2.82080964 94.02721764 2.71247292 79.0409317 C2.66242449 72.08199749 2.61598094 65.1230746 2.578125 58.1640625 C2.54157319 51.44666975 2.49484167 44.72941787 2.44193649 38.01213074 C2.42342194 35.45096544 2.40830317 32.88977324 2.39665604 30.3285675 C2.37974361 26.7377947 2.35069566 23.14730777 2.31884766 19.55664062 C2.31668747 18.50071716 2.31452728 17.4447937 2.31230164 16.35687256 C2.24680081 10.56550025 1.66105298 5.55515286 0 0 Z " fill="#C45D60" transform="translate(94,168)"/>
<path d="M0 0 C1.04440247 -0.00708481 2.08880493 -0.01416962 3.16485596 -0.02146912 C4.89083763 -0.01775299 4.89083763 -0.01775299 6.65168762 -0.01396179 C7.85993195 -0.01907272 9.06817627 -0.02418365 10.31303406 -0.02944946 C13.63360977 -0.04099435 16.9539364 -0.04341439 20.27451491 -0.04088616 C23.04759112 -0.03981761 25.82064422 -0.04469732 28.59371549 -0.04949158 C35.14023802 -0.06059913 41.68670319 -0.06101845 48.23323059 -0.05497742 C54.9792248 -0.04894768 61.7250099 -0.06122014 68.47096843 -0.08254749 C74.26556354 -0.10019131 80.06009229 -0.10616012 85.85471326 -0.10290974 C89.31408032 -0.10109975 92.77329854 -0.10370364 96.23264122 -0.11762428 C100.09636422 -0.13258863 103.95982374 -0.12320814 107.82356262 -0.11161804 C109.53436256 -0.12308365 109.53436256 -0.12308365 111.27972412 -0.13478088 C117.3253875 -0.09471843 121.71156679 0.37243591 127.06111145 3.26069641 C127.06111145 4.25069641 127.06111145 5.24069641 127.06111145 6.26069641 C126.73111145 5.60069641 126.40111145 4.94069641 126.06111145 4.26069641 C124.74111145 4.26069641 123.42111145 4.26069641 122.06111145 4.26069641 C122.06111145 3.60069641 122.06111145 2.94069641 122.06111145 2.26069641 C79.49111145 2.26069641 36.92111145 2.26069641 -6.93888855 2.26069641 C-4.39968436 -0.27850778 -3.51950216 0.00793217 0 0 Z " fill="#E0696C" transform="translate(155.9388885498047,84.73930358886719)"/>
<path d="M0 0 C0.33 0 0.66 0 1 0 C2.22124571 13.2227946 2.03963585 26.3870368 1.87890625 39.65234375 C1.85455501 42.00744624 1.83071413 44.36255406 1.80735779 46.71766663 C1.74501403 52.86768742 1.67581095 59.01761195 1.60510254 65.1675415 C1.53396546 71.46256181 1.46942158 77.7576495 1.40429688 84.05273438 C1.27592687 96.36856366 1.14029894 108.68430122 1 121 C-1.12567122 117.81149317 -1.24965247 117.03496633 -1.24723816 113.38296509 C-1.25143265 112.43526749 -1.25562714 111.48756989 -1.25994873 110.51115417 C-1.25432922 109.47316177 -1.24870972 108.43516937 -1.24291992 107.36572266 C-1.24481827 106.27116257 -1.24671661 105.17660248 -1.24867249 104.0488739 C-1.25238548 100.42053121 -1.24166702 96.7923875 -1.23046875 93.1640625 C-1.22927695 90.64684065 -1.22882379 88.12961836 -1.2290802 85.61239624 C-1.22751434 80.33141768 -1.21946046 75.05049056 -1.20581055 69.76953125 C-1.19010124 63.66940157 -1.1848119 57.56933487 -1.1855461 51.46918643 C-1.18615731 45.59749436 -1.18093403 39.72582342 -1.17275429 33.85413742 C-1.16957035 31.35745746 -1.16760085 28.86077566 -1.16686058 26.36409378 C-1.16469315 22.87371929 -1.15593951 19.38342391 -1.14526367 15.89306641 C-1.14594345 14.3421505 -1.14594345 14.3421505 -1.14663696 12.75990295 C-1.14237198 11.8065657 -1.13810699 10.85322845 -1.13371277 9.8710022 C-1.13203692 9.04620676 -1.13036108 8.22141132 -1.12863445 7.37162209 C-0.99113002 4.83646495 -0.55417234 2.47480397 0 0 Z " fill="#E75F64" transform="translate(177,128)"/>
<path d="M0 0 C0 3 0 3 -0.9609375 4.859375 C-2.18852338 7.38838651 -2.40445933 9.45648481 -2.625 12.25 C-2.69976562 13.14203125 -2.77453125 14.0340625 -2.8515625 14.953125 C-2.90054688 15.62859375 -2.94953125 16.3040625 -3 17 C-2.34 17 -1.68 17 -1 17 C-1 17.66 -1 18.32 -1 19 C-0.34 19 0.32 19 1 19 C1.33 19.99 1.66 20.98 2 22 C4.28705831 23.14352916 5.59264762 23.10334439 8.125 23.0625 C9.40375 23.041875 10.6825 23.02125 12 23 C12 22.34 12 21.68 12 21 C9.03 20.67 6.06 20.34 3 20 C3 19.01 3 18.02 3 17 C2.34 17 1.68 17 1 17 C1.33 16.01 1.66 15.02 2 14 C2.7734375 14.99 2.7734375 14.99 3.5625 16 C6.79995755 18.65637543 8.92552281 18.31342132 13 18 C13.33 14.7 13.66 11.4 14 8 C16.475 8.495 16.475 8.495 19 9 C18.67 6.36 18.34 3.72 18 1 C21.51919758 4.36618899 22.18591613 6.37318982 22.3125 11.25 C22.26617553 16.29936701 21.52318556 19.18321564 18 23 C13.34238573 25.90344786 8.30796644 25.75279408 3 25 C-0.47068806 23.34337966 -2.44707863 20.95504601 -4.375 17.625 C-5.81978644 11.55689695 -5.22581817 7.33500698 -2 2 C-1.34 1.34 -0.68 0.68 0 0 Z " fill="#D85154" transform="translate(234,371)"/>
<path d="M0 0 C0.66 0.33 1.32 0.66 2 1 C0.6875 3.9375 0.6875 3.9375 -1 7 C-1.99 7.33 -2.98 7.66 -4 8 C-4.09361568 23.22978295 -4.16406341 38.45955258 -4.20724869 53.68955898 C-4.22783714 60.76180604 -4.25588603 67.83387387 -4.30175781 74.90600586 C-4.34602196 81.7335638 -4.36915153 88.56093558 -4.37950897 95.38862801 C-4.38688831 97.99088531 -4.4012984 100.59313266 -4.42292023 103.19531059 C-4.45204114 106.84584262 -4.45595219 110.49561037 -4.45410156 114.14624023 C-4.46848267 115.2172699 -4.48286377 116.28829956 -4.49768066 117.39178467 C-4.46183789 123.94441458 -3.58584829 129.38944695 0 135 C1.94576739 136.24404677 1.94576739 136.24404677 4 135.5 C6 135 6 135 8 136 C8.72693904 137.97888961 9.39816251 139.97954558 10 142 C3.71079142 141.38641867 -0.93341504 139.34768799 -5.07260132 134.64547729 C-8.11523135 129.94465149 -7.57356888 124.66331187 -7.54931641 119.24658203 C-7.5646492 117.47963989 -7.5646492 117.47963989 -7.58029175 115.67700195 C-7.60327932 112.45772096 -7.6082391 109.23908084 -7.60316515 106.01973963 C-7.60101943 103.32605872 -7.61080857 100.63247186 -7.62037599 97.93881118 C-7.64253688 91.58006631 -7.64345835 85.22155774 -7.63134766 78.86279297 C-7.61927286 72.31756625 -7.64388257 65.77319992 -7.68648779 59.22811997 C-7.72179541 53.59559333 -7.7337107 47.96333962 -7.72721231 42.33070648 C-7.72359761 38.97234998 -7.72874554 35.61460709 -7.75664139 32.25635147 C-7.78136145 28.50763249 -7.76779539 24.76089513 -7.74462891 21.01220703 C-7.75991638 19.90960541 -7.77520386 18.80700378 -7.79095459 17.67098999 C-7.68328693 9.77469165 -5.53371148 5.53371148 0 0 Z " fill="#E7444C" transform="translate(64,164)"/>
<path d="M0 0 C0 1.65 0 3.3 0 5 C-1.8125 5.625 -1.8125 5.625 -4 6 C-4.99 5.34 -5.98 4.68 -7 4 C-12.16881107 2.99958495 -15.19987715 2.59993857 -20 5 C-21.32676508 5.35858516 -22.65835921 5.7018576 -24 6 C-23.01 6 -22.02 6 -21 6 C-21 8.64 -21 11.28 -21 14 C-22.32 13.67 -23.64 13.34 -25 13 C-25 11.68 -25 10.36 -25 9 C-25.66 9 -26.32 9 -27 9 C-26.68050124 5.52463593 -26.17772523 2.29444761 -25 -1 C-17.37712317 -6.51442153 -7.35760185 -5.23207243 0 0 Z " fill="#E35152" transform="translate(288,362)"/>
<path d="M0 0 C1.65 0 3.3 0 5 0 C7.10549845 2.10549845 6.46315824 6.46184831 6.625 9.375 C6.6765625 10.15617187 6.728125 10.93734375 6.78125 11.7421875 C6.97899238 15.13870359 7.08569348 17.74291955 6 21 C5.61496448 23.72897438 5.2601109 26.45128163 4.9375 29.1875 C4.80118164 30.31188477 4.80118164 30.31188477 4.66210938 31.45898438 C4.4386269 33.30565535 4.21894487 35.15278554 4 37 C2.68 36.67 1.36 36.34 0 36 C0 24.12 0 12.24 0 0 Z " fill="#EC4142" transform="translate(171,358)"/>
<path d="M0 0 C1.15242188 0.00902344 2.30484375 0.01804687 3.4921875 0.02734375 C4.36101562 0.03894531 5.22984375 0.05054687 6.125 0.0625 C6.62 2.0425 6.62 2.0425 7.125 4.0625 C4.84159878 5.20420061 3.35323219 5.22945888 0.8125 5.375 C-4.79775912 5.86640956 -9.85906936 7.45698525 -15.1875 9.22265625 C-17.875 10.0625 -17.875 10.0625 -19.875 10.0625 C-19.545 8.7425 -19.215 7.4225 -18.875 6.0625 C-21.515 6.3925 -24.155 6.7225 -26.875 7.0625 C-27.205 8.0525 -27.535 9.0425 -27.875 10.0625 C-30.845 10.0625 -33.815 10.0625 -36.875 10.0625 C-28.98524168 2.17274168 -10.68412446 -0.10902168 0 0 Z " fill="#DD6D70" transform="translate(367.875,84.9375)"/>
<path d="M0 0 C1.65 0 3.3 0 5 0 C7 2 7 2 7.24291992 4.30664062 C7.23881104 5.24701172 7.23470215 6.18738281 7.23046875 7.15625 C7.22853516 8.17847656 7.22660156 9.20070313 7.22460938 10.25390625 C7.21236328 11.32511719 7.20011719 12.39632813 7.1875 13.5 C7.18685547 14.57121094 7.18621094 15.64242188 7.18554688 16.74609375 C7.14030114 24.71939772 7.14030114 24.71939772 6 27 C4.02 27 2.04 27 0 27 C0 18.09 0 9.18 0 0 Z " fill="#EC4143" transform="translate(72,369)"/>
<path d="M0 0 C1.11658501 4.68965706 0.80619523 7.53763531 -1 12 C-0.34 12 0.32 12 1 12 C1 12.66 1 13.32 1 14 C6.36891879 13.50130596 11.69235173 12.97772468 17 12 C17.25 14.3125 17.25 14.3125 17 17 C14.74272482 19.25727518 13.34040198 19.95224071 10.16015625 20.3984375 C9.13792969 20.39070313 8.11570313 20.38296875 7.0625 20.375 C6.04285156 20.38273437 5.02320312 20.39046875 3.97265625 20.3984375 C0.53830489 19.93811708 -1.32009067 19.19570389 -4 17 C-5.23365988 13.4539728 -5.1074492 9.91828401 -5.0625 6.1875 C-5.05347656 5.21167969 -5.04445313 4.23585938 -5.03515625 3.23046875 C-5.02355469 2.49441406 -5.01195313 1.75835937 -5 1 C-3 0 -3 0 0 0 Z " fill="#EB4141" transform="translate(122,376)"/>
<path d="M0 0 C3.10508973 -0.10779482 6.20645418 -0.18720629 9.3125 -0.25 C10.19357422 -0.28351563 11.07464844 -0.31703125 11.98242188 -0.3515625 C18.33276099 -0.4481456 18.33276099 -0.4481456 21.09375 1.40625 C22.52298087 5.49680733 22.31120578 9.45518891 22.1875 13.75 C22.16719727 15.08224609 22.16719727 15.08224609 22.14648438 16.44140625 C22.11121309 18.62822578 22.06192752 20.81379966 22 23 C20.68 23 19.36 23 18 23 C17.34 16.73 16.68 10.46 16 4 C12.04 4 8.08 4 4 4 C4.33 4.99 4.66 5.98 5 7 C4.5625 9.1875 4.5625 9.1875 4 11 C2.68 11 1.36 11 0 11 C0 7.37 0 3.74 0 0 Z " fill="#ED4140" transform="translate(367,371)"/>
<path d="M0 0 C13.86 0.495 13.86 0.495 28 1 C28.33 2.32 28.66 3.64 29 5 C27.77023438 5.14695312 27.77023438 5.14695312 26.515625 5.296875 C24.89914063 5.52117187 24.89914063 5.52117187 23.25 5.75 C22.18265625 5.88921875 21.1153125 6.0284375 20.015625 6.171875 C16.58891653 7.11288821 15.29667243 8.35989992 13 11 C12.67 11 12.34 11 12 11 C12 9.35 12 7.7 12 6 C8.04 5.67 4.08 5.34 0 5 C0 3.35 0 1.7 0 0 Z " fill="#ED4040" transform="translate(83,358)"/>
<path d="M0 0 C0.99 1.32 1.98 2.64 3 4 C1.92250558 4.82022749 0.83770492 5.63086169 -0.25 6.4375 C-0.85328125 6.88996094 -1.4565625 7.34242187 -2.078125 7.80859375 C-5.32194547 9.81949872 -8.43923842 10.1250779 -12.20147705 10.12025452 C-13.03156281 10.12162918 -13.86164856 10.12300385 -14.71688843 10.12442017 C-15.6188797 10.12082489 -16.52087097 10.11722961 -17.45019531 10.11352539 C-18.88484634 10.11374443 -18.88484634 10.11374443 -20.34848022 10.1139679 C-23.50838492 10.11327148 -26.6682306 10.10549174 -29.828125 10.09765625 C-32.01959196 10.09579111 -34.21105933 10.09436766 -36.40252686 10.09336853 C-42.16960807 10.08955094 -47.93666409 10.07972709 -53.70373535 10.06866455 C-59.5889451 10.05843416 -65.47415892 10.05386742 -71.359375 10.04882812 C-82.90626107 10.03810417 -94.45312844 10.02103681 -106 10 C-106 9.67 -106 9.34 -106 9 C-74.65 9 -43.3 9 -11 9 C-10.67 8.01 -10.34 7.02 -10 6 C-7.36 6 -4.72 6 -2 6 C-2 4.68 -2 3.36 -2 2 C-1.34 2 -0.68 2 0 2 C0 1.34 0 0.68 0 0 Z " fill="#D24B4E" transform="translate(284,118)"/>
<path d="M0 0 C0.33 0 0.66 0 1 0 C1.24680576 13.1605899 1.46601412 26.32132454 1.65021229 39.4829483 C1.73661019 45.59474861 1.83243035 51.70609544 1.94995117 57.81738281 C2.06306257 63.71754444 2.15120436 69.617604 2.22220421 75.51841736 C2.25361831 77.76714717 2.29395682 80.01577096 2.34345436 82.26417542 C2.41136945 85.41913627 2.44724294 88.57298658 2.47583008 91.72851562 C2.5031572 92.65352875 2.53048431 93.57854187 2.55863953 94.53158569 C2.57000079 100.94089962 1.01762415 104.99758531 -3 110 C-3.99 110.99 -3.99 110.99 -5 112 C-5.99 112 -6.98 112 -8 112 C-8 111.34 -8 110.68 -8 110 C-7.01 110 -6.02 110 -5 110 C-5 108.68 -5 107.36 -5 106 C-4.01 106 -3.02 106 -2 106 C-2 104.35 -2 102.7 -2 101 C-1.34 101 -0.68 101 0 101 C0 67.67 0 34.34 0 0 Z " fill="#E0444A" transform="translate(97,191)"/>
<path d="M0 0 C1.20628008 2.33214148 2.1654738 4.49642139 3 7 C1.625 9.5 1.625 9.5 0 12 C-1.15811388 14.94729537 -1.15811388 14.94729537 -1 18 C-1.66 18.66 -2.32 19.32 -3 20 C-3.99 20 -4.98 20 -6 20 C-6 20.66 -6 21.32 -6 22 C-3.08235 23.9451 -1.37462715 24.45276317 2 25 C-0.15341406 27.34917898 -2.21667937 28.82443004 -5.0625 30.25 C-6.10083984 30.78367187 -6.10083984 30.78367187 -7.16015625 31.328125 C-7.76730469 31.54984375 -8.37445313 31.7715625 -9 32 C-9.66 31.67 -10.32 31.34 -11 31 C-11 30.34 -11 29.68 -11 29 C-9.68 29 -8.36 29 -7 29 C-7 27.68 -7 26.36 -7 25 C-10.68266103 25.59950296 -14.34543185 26.24758891 -18 27 C-17.27039063 26.43925781 -16.54078125 25.87851562 -15.7890625 25.30078125 C-7.26921605 18.27250455 -1.35853879 11.14001804 0 0 Z " fill="#E66E72" transform="translate(412,269)"/>
<path d="M0 0 C1.17369141 0.10054688 1.17369141 0.10054688 2.37109375 0.203125 C5.04224691 0.86972294 5.87801004 1.59005396 7.5625 3.75 C7.90307617 6.01831055 7.90307617 6.01831055 7.85546875 8.63671875 C7.84580078 9.57451172 7.83613281 10.51230469 7.82617188 11.47851562 C7.80103516 12.45498047 7.77589844 13.43144531 7.75 14.4375 C7.73646484 15.42556641 7.72292969 16.41363281 7.70898438 17.43164062 C7.67362203 19.87164231 7.62427033 22.31054719 7.5625 24.75 C6.2425 24.75 4.9225 24.75 3.5625 24.75 C3.51351562 23.49703125 3.46453125 22.2440625 3.4140625 20.953125 C3.33901417 19.30206179 3.26346723 17.65102119 3.1875 16 C3.1565625 15.175 3.125625 14.35 3.09375 13.5 C3.05507812 12.70078125 3.01640625 11.9015625 2.9765625 11.078125 C2.9451416 10.3449707 2.9137207 9.61181641 2.88134766 8.85644531 C2.52477477 6.50077082 1.72587117 4.81549409 0.5625 2.75 C-1.4175 3.08 -3.3975 3.41 -5.4375 3.75 C-5.7675 2.76 -6.0975 1.77 -6.4375 0.75 C-3.98972161 -0.4738892 -2.70359459 -0.266364 0 0 Z " fill="#ED4141" transform="translate(185.4375,370.25)"/>
<path d="M0 0 C0.66 0.66 1.32 1.32 2 2 C0.68 2.33 -0.64 2.66 -2 3 C-1.67 3 -1.34 3 -1 3 C1.68429577 6.00641127 2 6.75589918 2 11 C1.34 11 0.68 11 0 11 C-0.33 9.68 -0.66 8.36 -1 7 C-5.79308342 6.53477707 -5.79308342 6.53477707 -9.9375 8.5 C-10.288125 8.995 -10.63875 9.49 -11 10 C-11.33 9.01 -11.66 8.02 -12 7 C-11.34 7 -10.68 7 -10 7 C-10 5.68 -10 4.36 -10 3 C-12.91920575 4.94613716 -14.35526998 5.95724946 -16 9 C-15.74889902 11.34360915 -15.41434251 13.67968195 -15 16 C-15.4375 18.4375 -15.4375 18.4375 -16 20 C-16.66 20 -17.32 20 -18 20 C-19.1589022 13.84245938 -19.38944361 9.57618143 -16 4 C-11.28163701 -0.48819894 -6.25096924 -0.96687654 0 0 Z " fill="#DF5658" transform="translate(311,369)"/>
<path d="M0 0 C0.33 0 0.66 0 1 0 C1 3.3 1 6.6 1 10 C1.66 10 2.32 10 3 10 C3.33 11.65 3.66 13.3 4 15 C6.64 15.33 9.28 15.66 12 16 C12 15.01 12 14.02 12 13 C15.82320557 11.57741188 18.91281305 10.75957724 23 11 C23.25 13.3125 23.25 13.3125 23 16 C19.88509086 19.10751031 17.37300091 19.43206431 13.0625 19.4375 C9.16497636 19.33780695 7.32017234 19.17929651 3.875 17.25 C0.52682829 13.23219395 -0.24980493 10.491807 -0.125 5.25 C-0.09792969 3.77273438 -0.09792969 3.77273438 -0.0703125 2.265625 C-0.04710937 1.51796875 -0.02390625 0.7703125 0 0 Z " fill="#E15759" transform="translate(143,377)"/>
<path d="M0 0 C1.60379341 -0.05416188 3.20811406 -0.09286638 4.8125 -0.125 C5.70582031 -0.14820313 6.59914062 -0.17140625 7.51953125 -0.1953125 C10 0 10 0 13 2 C13.34057617 4.24658203 13.34057617 4.24658203 13.29296875 7.0078125 C13.28330078 7.99394531 13.27363281 8.98007812 13.26367188 9.99609375 C13.23853516 11.02863281 13.21339844 12.06117188 13.1875 13.125 C13.17396484 14.16527344 13.16042969 15.20554687 13.14648438 16.27734375 C13.11105228 18.85207627 13.06165221 21.4257833 13 24 C11.68 23.67 10.36 23.34 9 23 C8.92652344 21.33710938 8.92652344 21.33710938 8.8515625 19.640625 C8.77650785 18.17705935 8.70096119 16.71351888 8.625 15.25 C8.5940625 14.52039063 8.563125 13.79078125 8.53125 13.0390625 C8.31135424 7.68308472 8.31135424 7.68308472 6 3 C2.94091587 2.18415432 2.94091587 2.18415432 0 2 C0 1.34 0 0.68 0 0 Z " fill="#EE4041" transform="translate(210,371)"/>
<path d="M0 0 C0.77085937 -0.04898437 1.54171875 -0.09796875 2.3359375 -0.1484375 C4.625 0.375 4.625 0.375 6.89453125 2.2265625 C9.4285795 6.83704306 9.09443679 10.95654829 8.9375 16.125 C8.92783203 17.09566406 8.91816406 18.06632812 8.90820312 19.06640625 C8.79336021 26.20663979 8.79336021 26.20663979 7.625 27.375 C5.125 27.5 5.125 27.5 2.625 27.375 C1.11078999 25.86078999 1.41190144 24.45027232 1.30859375 22.33984375 C1.24575195 21.12651367 1.24575195 21.12651367 1.18164062 19.88867188 C1.14232422 19.03853516 1.10300781 18.18839844 1.0625 17.3125 C1.01931641 16.45849609 0.97613281 15.60449219 0.93164062 14.72460938 C0.82523298 12.60827963 0.72458269 10.49166187 0.625 8.375 C-1.85 7.385 -1.85 7.385 -4.375 6.375 C-4.375 6.045 -4.375 5.715 -4.375 5.375 C-2.37545254 5.33245644 -0.37458364 5.33419217 1.625 5.375 C4.63877186 8.38877186 3.6875 15.90740476 3.6875 19.8125 C3.67157422 21.66671531 3.65240022 23.52091875 3.625 25.375 C4.945 25.375 6.265 25.375 7.625 25.375 C7.51508434 22.27010601 7.38446585 19.16642006 7.25 16.0625 C7.2190625 15.18142578 7.188125 14.30035156 7.15625 13.39257812 C7.11757813 12.54501953 7.07890625 11.69746094 7.0390625 10.82421875 C6.99193115 9.65379028 6.99193115 9.65379028 6.94384766 8.4597168 C6.72912111 6.07344232 6.72912111 6.07344232 4.625 3.375 C1.26996524 3.00941883 1.26996524 3.00941883 -2.5 3.1875 C-3.78132813 3.21457031 -5.06265625 3.24164063 -6.3828125 3.26953125 C-7.86394531 3.32173828 -7.86394531 3.32173828 -9.375 3.375 C-5.91525823 1.06850548 -4.09122842 0.17669757 0 0 Z " fill="#D44B4F" transform="translate(381.375,368.625)"/>
<path d="M0 0 C1.65 0.33 3.3 0.66 5 1 C5.33 1.99 5.66 2.98 6 4 C10.29 4.33 14.58 4.66 19 5 C19 5.66 19 6.32 19 7 C19.66 7.33 20.32 7.66 21 8 C17.52613568 9.15795477 14.72230696 9.16829849 11.0625 9.1875 C9.83660156 9.20167969 8.61070312 9.21585937 7.34765625 9.23046875 C4.23233226 9.01599487 2.51924566 8.79159946 0 7 C-0.93580311 4.12060581 -1.37245106 2.74490212 0 0 Z " fill="#E84443" transform="translate(260,386)"/>
<path d="M0 0 C0.66 0 1.32 0 2 0 C1.67 4.95 1.34 9.9 1 15 C1.66 15 2.32 15 3 15 C3 15.99 3 16.98 3 18 C5.97 18.33 8.94 18.66 12 19 C12.33 19.99 12.66 20.98 13 22 C11.5629191 22.05422947 10.12524538 22.09289723 8.6875 22.125 C7.48673828 22.15980469 7.48673828 22.15980469 6.26171875 22.1953125 C4 22 4 22 1 20 C1 19.01 1 18.02 1 17 C0.34 17 -0.32 17 -1 17 C-1 16.34 -1 15.68 -1 15 C-1.66 15 -2.32 15 -3 15 C-3.57042254 4.11971831 -3.57042254 4.11971831 0 0 Z " fill="#ED4041" transform="translate(234,373)"/>
<path d="M0 0 C1.65 0 3.3 0 5 0 C6.94090826 1.94090826 6.39919435 5.47293902 6.5625 8.0625 C6.64628906 9.35285156 6.73007813 10.64320313 6.81640625 11.97265625 C6.87699219 12.97167969 6.93757812 13.97070312 7 15 C5.68 14.67 4.36 14.34 3 14 C3 15.32 3 16.64 3 18 C2.01 18 1.02 18 0 18 C0 12.06 0 6.12 0 0 Z " fill="#E44443" transform="translate(171,358)"/>
<path d="M0 0 C0.99 0 1.98 0 3 0 C3 1.32 3 2.64 3 4 C2.34 4 1.68 4 1 4 C1.33 4.66 1.66 5.32 2 6 C2.27571479 9.08100341 2.44663533 12.16171476 2.62109375 15.25 C2.73719166 18.13984008 2.73719166 18.13984008 5 20 C4.01 20.66 3.02 21.32 2 22 C2 21.34 2 20.68 2 20 C1.38125 19.87625 0.7625 19.7525 0.125 19.625 C-2 19 -2 19 -4 17 C-3.68143549 14.99759451 -3.34578768 12.99788438 -3 11 C-3.20625 9.948125 -3.4125 8.89625 -3.625 7.8125 C-3.74875 6.884375 -3.8725 5.95625 -4 5 C-2.625 3.25 -2.625 3.25 -1 2 C-0.67 1.34 -0.34 0.68 0 0 Z " fill="#E94242" transform="translate(298,372)"/>
<path d="M0 0 C3.3 0 6.6 0 10 0 C11.0390378 4.42682491 11.31592951 8.78934632 11.5625 13.3125 C11.60568359 14.05306641 11.64886719 14.79363281 11.69335938 15.55664062 C11.79870432 17.37091464 11.89978316 19.1854355 12 21 C12.99 21.33 13.98 21.66 15 22 C15 14.74 15 7.48 15 0 C17.04762755 3.07144133 17.2500695 3.69850959 17.23046875 7.16015625 C17.22853516 7.95357422 17.22660156 8.74699219 17.22460938 9.56445312 C17.20624023 10.80098633 17.20624023 10.80098633 17.1875 12.0625 C17.18685547 12.89072266 17.18621094 13.71894531 17.18554688 14.57226562 C17.14053468 20.71893064 17.14053468 20.71893064 16 23 C14.02 23 12.04 23 10 23 C9.67 16.4 9.34 9.8 9 3 C3.23112508 2.4452998 3.23112508 2.4452998 0 5 C0 3.35 0 1.7 0 0 Z " fill="#DC5C5F" transform="translate(208,373)"/>
<path d="M0 0 C1.48555383 0.92734572 2.96327506 1.86724813 4.4375 2.8125 C5.26121094 3.33457031 6.08492188 3.85664063 6.93359375 4.39453125 C9 6 9 6 10 9 C10.61875 9.309375 11.2375 9.61875 11.875 9.9375 C14.43612005 11.21806002 15.49479312 12.59166899 17 15 C17 15.66 17 16.32 17 17 C17.66 17 18.32 17 19 17 C20.54296875 19.1171875 20.54296875 19.1171875 22.1875 21.875 C22.73792969 22.77992188 23.28835938 23.68484375 23.85546875 24.6171875 C24.23316406 25.40351563 24.61085938 26.18984375 25 27 C24.67 27.66 24.34 28.32 24 29 C23.34 29 22.68 29 22 29 C20.23537317 25.91190305 20 24.76687864 20 21 C18.35 20.67 16.7 20.34 15 20 C14.67 20.66 14.34 21.32 14 22 C14 21.34 14 20.68 14 20 C13.34 19.67 12.68 19.34 12 19 C12.99 19 13.98 19 15 19 C14.71125 18.4225 14.4225 17.845 14.125 17.25 C13.39156014 15.78312028 12.6818549 14.30405759 12 12.8125 C11.12855431 10.82798477 11.12855431 10.82798477 9 10 C9 9.34 9 8.68 9 8 C7.5459375 7.5978125 7.5459375 7.5978125 6.0625 7.1875 C5.051875 6.795625 4.04125 6.40375 3 6 C2.67 5.01 2.34 4.02 2 3 C1.34 3 0.68 3 0 3 C0 2.01 0 1.02 0 0 Z " fill="#E55960" transform="translate(416,194)"/>
<path d="M0 0 C1.32 0.33 2.64 0.66 4 1 C3.51104248 1.34458252 3.02208496 1.68916504 2.51831055 2.04418945 C0.27668318 4.93174 0.62785033 7.7927084 0.70703125 11.29296875 C0.71127609 11.99899734 0.71552094 12.70502594 0.71989441 13.43244934 C0.73666966 15.68452303 0.77431757 17.93569742 0.8125 20.1875 C0.82754843 21.71548185 0.84123656 23.24347776 0.85351562 24.77148438 C0.88656911 28.51466872 0.93834168 32.25718196 1 36 C1.99 36.33 2.98 36.66 4 37 C4.33 36.34 4.66 35.68 5 35 C5 35.99 5 36.98 5 38 C3.02 38 1.04 38 -1 38 C-2.78101389 32.65695832 -2.18591237 26.86309289 -2.18530273 21.26660156 C-2.18749198 19.00827264 -2.20566769 16.7504302 -2.22460938 14.4921875 C-2.227543 13.05729334 -2.229528 11.62239685 -2.23046875 10.1875 C-2.23457764 8.88167969 -2.23868652 7.57585937 -2.24291992 6.23046875 C-2 3 -2 3 0 0 Z " fill="#E37577" transform="translate(325,358)"/>
<path d="M0 0 C-0.66 0.66 -1.32 1.32 -2 2 C-2.33 1.67 -2.66 1.34 -3 1 C-4.56179116 0.95294038 -6.12544667 0.96264148 -7.6875 1 C-11.58193458 1.04469939 -15.17280232 0.80572583 -19 0 C-19.20625 0.78375 -19.4125 1.5675 -19.625 2.375 C-21 5 -21 5 -23.875 6.1875 C-24.90625 6.455625 -25.9375 6.72375 -27 7 C-28.34721283 7.63815344 -29.68747118 8.29325371 -31 9 C-31 8.34 -31 7.68 -31 7 C-30.34 7 -29.68 7 -29 7 C-28.773125 6.4225 -28.54625 5.845 -28.3125 5.25 C-26.0982842 1.45420149 -23.15828941 -0.48520471 -19.1875 -2.25 C-11.78557307 -3.99162986 -6.82666257 -2.92571253 0 0 Z " fill="#E6646A" transform="translate(328,233)"/>
<path d="M0 0 C2.375 -0.125 2.375 -0.125 5 0 C7 2 7 2 7.24291992 4.30664062 C7.23881104 5.24701172 7.23470215 6.18738281 7.23046875 7.15625 C7.22853516 8.17847656 7.22660156 9.20070313 7.22460938 10.25390625 C7.21236328 11.32511719 7.20011719 12.39632813 7.1875 13.5 C7.18685547 14.57121094 7.18621094 15.64242188 7.18554688 16.74609375 C7.14030114 24.71939772 7.14030114 24.71939772 6 27 C4.02 27 2.04 27 0 27 C0 23.04 0 19.08 0 15 C0.33 15 0.66 15 1 15 C1.33 17.97 1.66 20.94 2 24 C2.99 24.33 3.98 24.66 5 25 C5 17.41 5 9.82 5 2 C3.35 2 1.7 2 0 2 C0 1.34 0 0.68 0 0 Z " fill="#D85C5E" transform="translate(72,369)"/>
<path d="M0 0 C-0.33 0.99 -0.66 1.98 -1 3 C1.64 3.33 4.28 3.66 7 4 C7 4.33 7 4.66 7 5 C2.67940177 6.09845718 -1.61667943 7.17812739 -6 8 C-5.67 6.68 -5.34 5.36 -5 4 C-7.64 4.33 -10.28 4.66 -13 5 C-13.33 5.99 -13.66 6.98 -14 8 C-16.97 8 -19.94 8 -23 8 C-20.66097658 5.66097658 -18.85854029 5.08713977 -15.75 4 C-14.76386719 3.65453125 -13.77773438 3.3090625 -12.76171875 2.953125 C-11.85035156 2.63859375 -10.93898438 2.3240625 -10 2 C-8.2984375 1.38125 -8.2984375 1.38125 -6.5625 0.75 C-4 0 -4 0 0 0 Z " fill="#E4696D" transform="translate(354,87)"/>
<path d="M0 0 C9.26710384 0.08450247 9.26710384 0.08450247 12.6953125 3.3984375 C12.8125 6.01171875 12.8125 6.01171875 12.6953125 8.3984375 C11.43074219 8.25535156 11.43074219 8.25535156 10.140625 8.109375 C9.04492188 7.99851562 7.94921875 7.88765625 6.8203125 7.7734375 C5.72976563 7.65742188 4.63921875 7.54140625 3.515625 7.421875 C2.58492188 7.41414063 1.65421875 7.40640625 0.6953125 7.3984375 C-2.06692028 10.16067028 -1.88325041 12.60550367 -2.3046875 16.3984375 C-2.6346875 16.3984375 -2.9646875 16.3984375 -3.3046875 16.3984375 C-4.06642142 12.0819453 -4.46532354 8.65410297 -3.3046875 4.3984375 C-1.9846875 4.0684375 -0.6646875 3.7384375 0.6953125 3.3984375 C0.6953125 3.7284375 0.6953125 4.0584375 0.6953125 4.3984375 C3.9953125 5.0584375 7.2953125 5.7184375 10.6953125 6.3984375 C10.3653125 5.4084375 10.0353125 4.4184375 9.6953125 3.3984375 C4.7453125 3.3984375 -0.2046875 3.3984375 -5.3046875 3.3984375 C-2.3046875 0.3984375 -2.3046875 0.3984375 0 0 Z " fill="#D26468" transform="translate(405.3046875,368.6015625)"/>
<path d="M0 0 C-0.33 1.65 -0.66 3.3 -1 5 C-2.32 5.33 -3.64 5.66 -5 6 C-5 6.66 -5 7.32 -5 8 C-6.65002828 9.35386936 -8.3174387 10.68678142 -10 12 C-10.33 12.66 -10.66 13.32 -11 14 C-11.66 14 -12.32 14 -13 14 C-13 12.68 -13 11.36 -13 10 C-12.34 10 -11.68 10 -11 10 C-11 7.69 -11 5.38 -11 3 C-10.34 3 -9.68 3 -9 3 C-8.5875 2.505 -8.175 2.01 -7.75 1.5 C-5.23177499 -0.65847858 -3.20624415 -0.21374961 0 0 Z " fill="#E85157" transform="translate(349,91)"/>
<path d="M0 0 C2.84550012 0.66010476 5.52325999 1.51724966 8.25 2.5625 C8.95640625 2.83191406 9.6628125 3.10132813 10.390625 3.37890625 C10.92171875 3.58386719 11.4528125 3.78882813 12 4 C12 4.66 12 5.32 12 6 C13.32 6 14.64 6 16 6 C18 8 18 8 19 10 C20.94603274 10.59070014 20.94603274 10.59070014 23 11 C23.66 11.33 24.32 11.66 25 12 C25 12.66 25 13.32 25 14 C26.32 14.33 27.64 14.66 29 15 C29 15.66 29 16.32 29 17 C24.0515518 15.23767539 19.61827193 12.63976526 15.0625 10.0625 C10.09143842 7.26092551 5.13242723 4.49618852 0 2 C0 1.34 0 0.68 0 0 Z " fill="#E3676E" transform="translate(362,211)"/>
<path d="M0 0 C3.51919758 3.36618899 4.18591613 5.37318982 4.3125 10.25 C4.29177466 15.50732742 3.40983445 18.05737892 0 22 C-0.33 21.01 -0.66 20.02 -1 19 C-0.34 19 0.32 19 1 19 C1 17.68 1 16.36 1 15 C1.66 15 2.32 15 3 15 C3 13.35 3 11.7 3 10 C1.04105639 10.11306697 1.04105639 10.11306697 -1 11 C-2.18391223 13.37625345 -2.18391223 13.37625345 -3 16 C-3.66 16.99 -4.32 17.98 -5 19 C-5.66 18.34 -6.32 17.68 -7 17 C-6.34 17 -5.68 17 -5 17 C-4.67 13.7 -4.34 10.4 -4 7 C-2.35 7.33 -0.7 7.66 1 8 C0.67 5.36 0.34 2.72 0 0 Z " fill="#E26063" transform="translate(252,372)"/>
<path d="M0 0 C1.17046875 0.03609375 2.3409375 0.0721875 3.546875 0.109375 C4.43890625 0.15578125 5.3309375 0.2021875 6.25 0.25 C6.58 1.57 6.91 2.89 7.25 4.25 C6.47914063 4.1778125 5.70828125 4.105625 4.9140625 4.03125 C3.91117187 3.9384375 2.90828125 3.845625 1.875 3.75 C0.37839844 3.61078125 0.37839844 3.61078125 -1.1484375 3.46875 C-3.64703736 3.22207053 -3.64703736 3.22207053 -5.75 3.25 C-5.9665625 4.11625 -5.9665625 4.11625 -6.1875 5 C-6.70833333 7.08333333 -7.22916667 9.16666667 -7.75 11.25 C-8.74 10.92 -9.73 10.59 -10.75 10.25 C-11.0633234 6.80344261 -11.23356435 4.91371577 -9.15625 2.0625 C-5.95323037 -0.35016414 -3.96220722 -0.15848829 0 0 Z " fill="#ED4041" transform="translate(408.75,370.75)"/>
<path d="M0 0 C0.25 2.3125 0.25 2.3125 0 5 C-2.25727518 7.25727518 -3.65959802 7.95224071 -6.83984375 8.3984375 C-7.86207031 8.39070313 -8.88429687 8.38296875 -9.9375 8.375 C-10.95714844 8.38273437 -11.97679688 8.39046875 -13.02734375 8.3984375 C-16.34907205 7.95321242 -18.27186865 6.89914116 -21 5 C-20.34 4.67 -19.68 4.34 -19 4 C-18.0925 4.309375 -17.185 4.61875 -16.25 4.9375 C-11.79509455 6.3939114 -8.4407922 6.48026407 -4 5 C-5.18424326 3.58422523 -5.18424326 3.58422523 -8.5625 3.9375 C-10.2640625 3.9684375 -10.2640625 3.9684375 -12 4 C-12 3.34 -12 2.68 -12 2 C-10.7625 1.67 -9.525 1.34 -8.25 1 C-7.55390625 0.814375 -6.8578125 0.62875 -6.140625 0.4375 C-4 0 -4 0 0 0 Z " fill="#DF5659" transform="translate(139,388)"/>
<path d="M0 0 C-0.33 1.65 -0.66 3.3 -1 5 C-2.65 5.33 -4.3 5.66 -6 6 C-5.01 6.33 -4.02 6.66 -3 7 C-3 9.64 -3 12.28 -3 15 C-4.32 14.67 -5.64 14.34 -7 14 C-7 12.68 -7 11.36 -7 10 C-7.66 10 -8.32 10 -9 10 C-8.34 7.03 -7.68 4.06 -7 1 C-3 0 -3 0 0 0 Z " fill="#EB4141" transform="translate(270,361)"/>
<path d="M0 0 C0.66 0.33 1.32 0.66 2 1 C2 1.66 2 2.32 2 3 C4.31 3.33 6.62 3.66 9 4 C9 4.33 9 4.66 9 5 C8.05125 5.268125 7.1025 5.53625 6.125 5.8125 C2.74732727 6.74986588 2.74732727 6.74986588 1 10 C1 8.68 1 7.36 1 6 C-0.65 6.33 -2.3 6.66 -4 7 C-3.9278125 7.74765625 -3.855625 8.4953125 -3.78125 9.265625 C-3.6884375 10.25046875 -3.595625 11.2353125 -3.5 12.25 C-3.4071875 13.22453125 -3.314375 14.1990625 -3.21875 15.203125 C-3.04199832 17.46302153 -3 19.73320193 -3 22 C-5.88380736 19.11619264 -6.16973292 16.54470906 -6.25 12.625 C-6.19284898 7.5957105 -4.7272775 4.85522398 -1.3125 1.1875 C-0.879375 0.795625 -0.44625 0.40375 0 0 Z " fill="#DB6B6C" transform="translate(121,370)"/>
<path d="M0 0 C0.33 0 0.66 0 1 0 C0.67 2.31 0.34 4.62 0 7 C-2.31 7 -4.62 7 -7 7 C-7 7.99 -7 8.98 -7 10 C-4.69 10 -2.38 10 0 10 C0 10.33 0 10.66 0 11 C-9.57668161 11.76681614 -9.57668161 11.76681614 -13.06640625 9.88671875 C-14.6875 8.5 -14.6875 8.5 -17 6 C-13.89448334 6 -12.64738916 6.5393715 -10 8 C-10 5.57202689 -10.50085685 3.37092995 -11 1 C-10.4740625 1.7425 -10.4740625 1.7425 -9.9375 2.5 C-7.05625711 4.73063966 -4.52990974 4.19980621 -1 4 C-0.67 2.68 -0.34 1.36 0 0 Z " fill="#DD5253" transform="translate(311,385)"/>
<path d="M0 0 C0.33 1.32 0.66 2.64 1 4 C1.61488281 3.98839844 2.22976562 3.97679687 2.86328125 3.96484375 C3.67152344 3.95582031 4.47976562 3.94679688 5.3125 3.9375 C6.51326172 3.92009766 6.51326172 3.92009766 7.73828125 3.90234375 C10 4 10 4 13 5 C13.33 15.23 13.66 25.46 14 36 C15.32 36.33 16.64 36.66 18 37 C16.33388095 37.042721 14.66617115 37.04063832 13 37 C12 36 12 36 11.88647461 33.13256836 C11.89171143 31.88096924 11.89694824 30.62937012 11.90234375 29.33984375 C11.9037587 28.67537735 11.90517365 28.01091095 11.90663147 27.3263092 C11.91224482 25.19666101 11.92479946 23.06711661 11.9375 20.9375 C11.94251329 19.49674631 11.94707649 18.05599097 11.95117188 16.61523438 C11.96221855 13.07678898 11.97949208 9.53840461 12 6 C8.04 6 4.08 6 0 6 C-0.33 4.35 -0.66 2.7 -1 1 C-0.67 0.67 -0.34 0.34 0 0 Z " fill="#D0494C" transform="translate(82,359)"/>
<path d="M0 0 C0.33 0 0.66 0 1 0 C1 15.18 1 30.36 1 46 C1.66 46 2.32 46 3 46 C3.33 49.3 3.66 52.6 4 56 C0.71244177 51.61658902 -0.12706331 49.42762658 -0.11352539 44.16137695 C-0.11344986 43.1805867 -0.11337433 42.19979645 -0.11329651 41.18928528 C-0.10813522 40.13295395 -0.10297394 39.07662262 -0.09765625 37.98828125 C-0.0962413 36.90491989 -0.09482635 35.82155853 -0.09336853 34.70536804 C-0.08776559 31.24105075 -0.07521258 27.7767978 -0.0625 24.3125 C-0.05748538 21.96549572 -0.05292241 19.61849044 -0.04882812 17.27148438 C-0.03779521 11.51430092 -0.0210542 5.75715506 0 0 Z " fill="#DD4951" transform="translate(136,241)"/>
<path d="M0 0 C3.95099928 -0.0246985 7.90196874 -0.04285923 11.85302734 -0.05493164 C13.85906551 -0.06244036 15.86508202 -0.0751447 17.87109375 -0.08789062 C19.75634766 -0.09272461 19.75634766 -0.09272461 21.6796875 -0.09765625 C23.42354736 -0.10551147 23.42354736 -0.10551147 25.20263672 -0.11352539 C28 0 28 0 30 1 C30.042721 2.66611905 30.04063832 4.33382885 30 6 C29 7 29 7 26.27734375 7.09765625 C24.62412109 7.08025391 24.62412109 7.08025391 22.9375 7.0625 C21.83277344 7.05347656 20.72804688 7.04445313 19.58984375 7.03515625 C18.73519531 7.02355469 17.88054687 7.01195312 17 7 C17 8.65 17 10.3 17 12 C16.67 12 16.34 12 16 12 C16 10.02 16 8.04 16 6 C18.88211302 5.03929566 20.69850044 4.89418117 23.6875 4.9375 C24.89986328 4.95103516 24.89986328 4.95103516 26.13671875 4.96484375 C27.05904297 4.98224609 27.05904297 4.98224609 28 5 C27.67 4.01 27.34 3.02 27 2 C18.09 1.67 9.18 1.34 0 1 C0 0.67 0 0.34 0 0 Z " fill="#D65A5E" transform="translate(84,358)"/>
<path d="M0 0 C0.33 0 0.66 0 1 0 C0.96519531 1.21816406 0.93039062 2.43632812 0.89453125 3.69140625 C0.86637488 5.31509028 0.83907671 6.93878935 0.8125 8.5625 C0.78736328 9.36236328 0.76222656 10.16222656 0.73632812 10.98632812 C0.66897063 16.48719035 1.56193793 20.07411948 4 25 C4.6875 27.9375 4.6875 27.9375 5 30 C0.17987642 25.68725785 -1.73146581 22.25400258 -2.265625 15.78125 C-2.26046875 14.6984375 -2.2553125 13.615625 -2.25 12.5 C-2.25515625 11.4171875 -2.2603125 10.334375 -2.265625 9.21875 C-1.98879794 5.86425744 -1.19052385 3.13693587 0 0 Z " fill="#E4747A" transform="translate(296,242)"/>
<path d="M0 0 C1.20628008 2.33214148 2.1654738 4.49642139 3 7 C1.625 9.5 1.625 9.5 0 12 C-1.15811388 14.94729537 -1.15811388 14.94729537 -1 18 C-1.66 18.66 -2.32 19.32 -3 20 C-3.99 20 -4.98 20 -6 20 C-6.33 20.99 -6.66 21.98 -7 23 C-8 20 -8 20 -6.8125 17.3125 C-6.214375 16.219375 -5.61625 15.12625 -5 14 C-2.4748776 9.33178478 -0.53755317 5.3755317 0 0 Z " fill="#E6595F" transform="translate(412,269)"/>
<path d="M0 0 C1.875 0.6875 1.875 0.6875 2.875 1.6875 C3 4.6875 3 4.6875 2.875 7.6875 C1.875 8.6875 1.875 8.6875 -1.125 8.8125 C-4.125 8.6875 -4.125 8.6875 -5.125 7.6875 C-5.375 4.75 -5.375 4.75 -5.125 1.6875 C-2.125 -0.3125 -2.125 -0.3125 0 0 Z " fill="#E05454" transform="translate(426.125,387.3125)"/>
<path d="M0 0 C-0.33 0.66 -0.66 1.32 -1 2 C-2.60433809 1.52140759 -4.20846416 1.04210442 -5.8125 0.5625 C-7.15248047 0.16224609 -7.15248047 0.16224609 -8.51953125 -0.24609375 C-10.35473055 -0.80387873 -12.18033726 -1.39344575 -14 -2 C-18.53604515 -2.14632404 -22.57453821 -2.10636545 -27 -1 C-26.67 -1.99 -26.34 -2.98 -26 -4 C-16.47794273 -5.90441145 -8.21406873 -5.47604582 0 0 Z " fill="#E1505A" transform="translate(94,166)"/>
<path d="M0 0 C4.96183924 3.55958032 6.95716951 5.74301703 8 12 C8.6351691 18.40943363 7.66985267 23.14686146 5 29 C4.34 29.66 3.68 30.32 3 31 C3 29.35 3 27.7 3 26 C3.66 26 4.32 26 5 26 C5 19.4 5 12.8 5 6 C3.68 5.34 2.36 4.68 1 4 C0.25 1.875 0.25 1.875 0 0 Z " fill="#E07078" transform="translate(284,90)"/>
<path d="M0 0 C0.0625 2.25 0.0625 2.25 -1 5 C-3.86674844 6.69300427 -6.87413371 7.86963623 -10 9 C-10 8.34 -10 7.68 -10 7 C-11.65 7.33 -13.3 7.66 -15 8 C-10.50931076 3.11307348 -6.81036805 0 0 0 Z " fill="#E6545A" transform="translate(334,95)"/>
<path d="M0 0 C7.42857143 -0.14285714 7.42857143 -0.14285714 11 1 C11.33 3.64 11.66 6.28 12 9 C7.40592168 8.50334288 7.40592168 8.50334288 5.4375 6.0625 C4.963125 5.381875 4.48875 4.70125 4 4 C1.91665365 2.7483533 1.91665365 2.7483533 0 2 C0 1.34 0 0.68 0 0 Z " fill="#EA4A49" transform="translate(241,371)"/>
<path d="M0 0 C3.125 0.375 3.125 0.375 6 1 C5.67 2.32 5.34 3.64 5 5 C5.66 5 6.32 5 7 5 C7.33 6.65 7.66 8.3 8 10 C3.02790438 8.23570801 -1.43438061 5.6060834 -6 3 C-5.38125 2.87625 -4.7625 2.7525 -4.125 2.625 C-1.80879168 2.12802644 -1.80879168 2.12802644 0 0 Z " fill="#E84D52" transform="translate(351,201)"/>
<path d="M0 0 C0.928125 0.495 1.85625 0.99 2.8125 1.5 C1.8225 2.16 0.8325 2.82 -0.1875 3.5 C-0.5175 3.17 -0.8475 2.84 -1.1875 2.5 C-8.84057798 1.10211306 -15.66306311 1.73896158 -23.1875 3.5 C-17.56245996 -3.01320426 -7.53932205 -3.23991233 0 0 Z " fill="#E76974" transform="translate(87.1875,85.5)"/>
<path d="M0 0 C2.52328175 0.43504858 3.73159623 0.70922925 5.5 2.625 C5.995 3.07875 6.49 3.5325 7 4 C9.06381575 3.67156616 9.06381575 3.67156616 11 3 C13 4 13 4 14.125 7.0625 C14.41375 8.031875 14.7025 9.00125 15 10 C9.6845628 9.48142076 6.33679844 8.00239892 2 5 C0.5625 2.25 0.5625 2.25 0 0 Z " fill="#EC5A62" transform="translate(59,296)"/>
<path d="M0 0 C-0.3125 2.375 -0.3125 2.375 -1 5 C-4.18762365 7.12508244 -6.26512223 7.5020163 -10 8 C-10.66 6.35 -11.32 4.7 -12 3 C-4.71428571 -0.42857143 -4.71428571 -0.42857143 0 0 Z " fill="#EC3D47" transform="translate(406,293)"/>
<path d="M0 0 C3 0.125 3 0.125 4 1.125 C4.125 3.625 4.125 3.625 4 6.125 C3 7.125 3 7.125 0 7.25 C-3 7.125 -3 7.125 -4 6.125 C-4.125 3.625 -4.125 3.625 -4 1.125 C-3 0.125 -3 0.125 0 0 Z " fill="#CE5356" transform="translate(75,357.875)"/>
<path d="M0 0 C3.96 0.33 7.92 0.66 12 1 C8 5 8 5 5.4921875 5.4609375 C4.62851562 5.43257813 3.76484375 5.40421875 2.875 5.375 C2.00617188 5.36210938 1.13734375 5.34921875 0.2421875 5.3359375 C-2 5 -2 5 -4 3 C-3.01 3 -2.02 3 -1 3 C-0.67 2.01 -0.34 1.02 0 0 Z " fill="#E94F53" transform="translate(355,86)"/>
<path d="M0 0 C2.97 0.99 5.94 1.98 9 3 C9 3.66 9 4.32 9 5 C13.62 5 18.24 5 23 5 C20.43748811 7.56251189 19.36893409 7.29778372 15.8125 7.3125 C10.73461395 7.21267262 7.38579715 6.55838167 3 4 C1.0625 1.8125 1.0625 1.8125 0 0 Z " fill="#DB5C64" transform="translate(301,272)"/>
<path d="M0 0 C0.33 0 0.66 0 1 0 C1.738041 18.04100228 1.738041 18.04100228 -3 25 C-3.66 25 -4.32 25 -5 25 C-5.33 25.99 -5.66 26.98 -6 28 C-7.0625 26.125 -7.0625 26.125 -8 24 C-7.67 23.34 -7.34 22.68 -7 22 C-6.34 22 -5.68 22 -5 22 C-4.67 21.01 -4.34 20.02 -4 19 C-3.34 19 -2.68 19 -2 19 C-2 18.01 -2 17.02 -2 16 C-1.34 16 -0.68 16 0 16 C0 10.72 0 5.44 0 0 Z " fill="#E47276" transform="translate(337,246)"/>
<path d="M0 0 C2.31 0.66 4.62 1.32 7 2 C8.125 7.75 8.125 7.75 7 10 C5.68 10 4.36 10 3 10 C3 8.02 3 6.04 3 4 C1.35 4 -0.3 4 -2 4 C-1.34 3.67 -0.68 3.34 0 3 C0 2.01 0 1.02 0 0 Z " fill="#EC4142" transform="translate(280,378)"/>
<path d="M0 0 C0.99 0 1.98 0 3 0 C2.29445932 3.66881155 0.72264494 6.70450534 -1 10 C-1.66 10 -2.32 10 -3 10 C-3 10.66 -3 11.32 -3 12 C-3.66 12 -4.32 12 -5 12 C-5.66 13.32 -6.32 14.64 -7 16 C-7.33 16 -7.66 16 -8 16 C-8.36625971 11.48279689 -8.36625971 11.48279689 -6.625 9.1875 C-5 8 -5 8 -3 8 C-3 7.34 -3 6.68 -3 6 C-2.34 6 -1.68 6 -1 6 C-0.67 4.02 -0.34 2.04 0 0 Z " fill="#E16B71" transform="translate(436,267)"/>
<path d="M0 0 C8.57142857 -0.14285714 8.57142857 -0.14285714 12 1 C12.33 2.32 12.66 3.64 13 5 C8.71 4.67 4.42 4.34 0 4 C0 2.68 0 1.36 0 0 Z " fill="#E54342" transform="translate(122,370)"/>
<path d="M0 0 C0.33 0.66 0.66 1.32 1 2 C1.99 2 2.98 2 4 2 C4.10824843 3.6026782 4.18570645 5.20745748 4.25 6.8125 C4.29640625 7.70582031 4.3428125 8.59914063 4.390625 9.51953125 C4 12 4 12 0 15 C0 10.05 0 5.1 0 0 Z " fill="#ED403F" transform="translate(171,358)"/>
<path d="M0 0 C0 0.66 0 1.32 0 2 C-1.32 2 -2.64 2 -4 2 C-4 2.66 -4 3.32 -4 4 C1.94 3.67 7.88 3.34 14 3 C9.88677699 5.05661151 7.45965966 5.39743508 2.9375 5.6875 C1.09478516 5.81705078 1.09478516 5.81705078 -0.78515625 5.94921875 C-4 6 -4 6 -7 5 C-6.67 3.68 -6.34 2.36 -6 1 C-3.92446352 0.4465236 -2.15634036 0 0 0 Z " fill="#E1787C" transform="translate(373,301)"/>
<path d="M0 0 C0.33 0.66 0.66 1.32 1 2 C1.66 2 2.32 2 3 2 C3.042721 3.66611905 3.04063832 5.33382885 3 7 C2 8 2 8 -0.72265625 8.09765625 C-2.37587891 8.08025391 -2.37587891 8.08025391 -4.0625 8.0625 C-5.16722656 8.05347656 -6.27195313 8.04445313 -7.41015625 8.03515625 C-8.69212891 8.01775391 -8.69212891 8.01775391 -10 8 C-7.08235 6.0549 -5.37462715 5.54723683 -2 5 C-1.855625 4.360625 -1.71125 3.72125 -1.5625 3.0625 C-1 1 -1 1 0 0 Z " fill="#EA7474" transform="translate(137,377)"/>
<path d="M0 0 C1.67542976 0.28604898 3.34385343 0.61781233 5 1 C5.99 3.97 6.98 6.94 8 10 C6.491987 9.07544441 4.99375083 8.1349253 3.5 7.1875 C2.6646875 6.66542969 1.829375 6.14335937 0.96875 5.60546875 C-0.00578125 4.81076172 -0.00578125 4.81076172 -1 4 C-1 1 -1 1 0 0 Z " fill="#E65F62" transform="translate(393,226)"/>
<path d="M0 0 C0.66 0.33 1.32 0.66 2 1 C1.3503125 1.5878125 1.3503125 1.5878125 0.6875 2.1875 C-1.11171387 3.98966473 -1.11171387 3.98966473 -2.4375 6.4375 C-4.03415263 9.05601031 -5.84218246 10.84218246 -8 13 C-8.350625 13.721875 -8.70125 14.44375 -9.0625 15.1875 C-10 17 -10 17 -13 18 C-10.74711643 10.79077257 -5.40135379 5.0836271 0 0 Z " fill="#DF6164" transform="translate(317,104)"/>
<path d="M0 0 C1.48555383 0.92734572 2.96327506 1.86724813 4.4375 2.8125 C5.26121094 3.33457031 6.08492188 3.85664063 6.93359375 4.39453125 C9 6 9 6 10 9 C10.639375 9.309375 11.27875 9.61875 11.9375 9.9375 C14.45468915 11.2342338 14.96886948 12.4221737 16 15 C14.68 15 13.36 15 12 15 C11.87625 14.360625 11.7525 13.72125 11.625 13.0625 C11.41875 12.381875 11.2125 11.70125 11 11 C10.34 10.67 9.68 10.34 9 10 C9 9.34 9 8.68 9 8 C7.5459375 7.5978125 7.5459375 7.5978125 6.0625 7.1875 C5.051875 6.795625 4.04125 6.40375 3 6 C2.67 5.01 2.34 4.02 2 3 C1.34 3 0.68 3 0 3 C0 2.01 0 1.02 0 0 Z " fill="#E4797E" transform="translate(416,194)"/>
<path d="M0 0 C2.34718487 0.93887395 3.72536523 1.57556444 5.1171875 3.7265625 C6.18667706 6.48073474 6.26589828 8.67586949 6.25 11.625 C6.25773437 13.06746094 6.25773437 13.06746094 6.265625 14.5390625 C6 17 6 17 4 19 C4 15.04 4 11.08 4 7 C3.34 7 2.68 7 2 7 C1.34 4.69 0.68 2.38 0 0 Z " fill="#D95D61" transform="translate(313,371)"/>
<path d="M0 0 C7.26 0 14.52 0 22 0 C17.56341164 3.32744127 16.33566248 3.40891311 11 3.375 C9.1746875 3.38660156 9.1746875 3.38660156 7.3125 3.3984375 C4 3 4 3 0 0 Z " fill="#E27172" transform="translate(410,149)"/>
<path d="M0 0 C-1.16379648 3.31234384 -2.11238786 5.8898219 -5 8 C-6.32 8 -7.64 8 -9 8 C-9.33 9.32 -9.66 10.64 -10 12 C-10.33 11.01 -10.66 10.02 -11 9 C-8.31135011 4.22017797 -5.82167404 0 0 0 Z " fill="#E2646A" transform="translate(148,87)"/>
<path d="M0 0 C0.66 0 1.32 0 2 0 C4.44989101 3.74235319 4.23086143 7.44225419 4.125 11.75 C4.11597656 12.44738281 4.10695313 13.14476562 4.09765625 13.86328125 C4.07419888 15.57566958 4.03833104 17.28788004 4 19 C3.34 19 2.68 19 2 19 C1.34 12.73 0.68 6.46 0 0 Z " fill="#E37176" transform="translate(411,249)"/>
<path d="M0 0 C0 3.08466622 -0.58966951 5.13342737 -1.5 8.0625 C-3.04115505 13.4891023 -3.3284307 18.39234983 -3 24 C-3.66 24.33 -4.32 24.66 -5 25 C-5.09579384 16.92138585 -5.12513633 9.01659634 -4 1 C-2.68 0.67 -1.36 0.34 0 0 Z " fill="#DD7F80" transform="translate(335,106)"/>
<path d="M0 0 C0 1.65 0 3.3 0 5 C-0.66 5 -1.32 5 -2 5 C-2 6.32 -2 7.64 -2 9 C-3.65 9 -5.3 9 -7 9 C-6.53149863 4.78348764 -4.94559315 0 0 0 Z " fill="#EA4144" transform="translate(255,382)"/>
<path d="M0 0 C-0.66 1.32 -1.32 2.64 -2 4 C-2.99 4 -3.98 4 -5 4 C-5 5.32 -5 6.64 -5 8 C-5.99 8 -6.98 8 -8 8 C-8.268125 8.969375 -8.53625 9.93875 -8.8125 10.9375 C-9.204375 11.948125 -9.59625 12.95875 -10 14 C-10.99 14.33 -11.98 14.66 -13 15 C-11.65670996 9.02982203 -8.25361253 5.203452 -4 1 C-2 0 -2 0 0 0 Z " fill="#E16E74" transform="translate(413,105)"/>
<path d="M0 0 C2.58361518 -0.05407567 5.16609255 -0.093707 7.75 -0.125 C8.84441406 -0.15013672 8.84441406 -0.15013672 9.9609375 -0.17578125 C13.8044624 -0.21072239 16.74606772 -0.17499684 20 2 C20 2.66 20 3.32 20 4 C20.66 4 21.32 4 22 4 C22 4.66 22 5.32 22 6 C19.525 5.505 19.525 5.505 17 5 C17 4.34 17 3.68 17 3 C16.01 3.33 15.02 3.66 14 4 C13.67 3.01 13.34 2.02 13 1 C8.71 1 4.42 1 0 1 C0 0.67 0 0.34 0 0 Z " fill="#E3747A" transform="translate(413,104)"/>
<path d="M0 0 C6.875 3.625 6.875 3.625 8 7 C5 9 5 9 2 9 C0.50178941 5.62902617 0 3.79557881 0 0 Z " fill="#E74C54" transform="translate(408,189)"/>
<path d="M0 0 C1.09570312 0.28746094 2.19140625 0.57492187 3.3203125 0.87109375 C4.16335938 1.09925781 5.00640625 1.32742188 5.875 1.5625 C5.875 1.8925 5.875 2.2225 5.875 2.5625 C5.17632812 2.53929687 4.47765625 2.51609375 3.7578125 2.4921875 C2.39269531 2.46511719 2.39269531 2.46511719 1 2.4375 C0.09507812 2.41429687 -0.80984375 2.39109375 -1.7421875 2.3671875 C-4.31306994 2.31925164 -4.31306994 2.31925164 -6.125 4.5625 C-6.52547444 6.88525177 -6.8647104 9.21989357 -7.125 11.5625 C-7.455 11.5625 -7.785 11.5625 -8.125 11.5625 C-8.8768819 7.30183592 -9.47524359 3.7359802 -8.125 -0.4375 C-5.13816063 -1.93091969 -3.17339022 -0.84398676 0 0 Z " fill="#DF6262" transform="translate(410.125,373.4375)"/>
<path d="M0 0 C8.8359509 -0.6176587 8.8359509 -0.6176587 13.0625 1.625 C15.363706 4.44583317 15.75499132 6.40653943 16 10 C15.67 9.34 15.34 8.68 15 8 C14.01 8 13.02 8 12 8 C11.67 6.02 11.34 4.04 11 2 C7.37 1.67 3.74 1.34 0 1 C0 0.67 0 0.34 0 0 Z " fill="#DC6362" transform="translate(123,369)"/>
<path d="M0 0 C-1.3610311 5.19666421 -3.30387451 8.2137251 -7 12 C-7.99 12 -8.98 12 -10 12 C-10 11.34 -10 10.68 -10 10 C-9.01 10 -8.02 10 -7 10 C-7 8.68 -7 7.36 -7 6 C-6.01 6 -5.02 6 -4 6 C-4 4.35 -4 2.7 -4 1 C-2 0 -2 0 0 0 Z " fill="#E4747B" transform="translate(99,291)"/>
<path d="M0 0 C1.94083159 1.09830005 3.87755328 2.20386505 5.8125 3.3125 C6.89144531 3.92738281 7.97039062 4.54226562 9.08203125 5.17578125 C11.44640831 6.65391256 13.18047718 7.92510556 15 10 C14.01 10.495 14.01 10.495 13 11 C10.375 9.6875 10.375 9.6875 8 8 C8 7.34 8 6.68 8 6 C7.05125 5.938125 6.1025 5.87625 5.125 5.8125 C3.578125 5.4103125 3.578125 5.4103125 2 5 C0.8046875 2.44921875 0.8046875 2.44921875 0 0 Z " fill="#E67980" transform="translate(353,157)"/>
<path d="M0 0 C2.0245738 1.93254772 3.42105792 3.63158688 5 6 C3.75 7.5625 3.75 7.5625 2 9 C-1.37080456 8.78252874 -3.44609064 7.09785412 -6 5 C-5.67 4.34 -5.34 3.68 -5 3 C-4.34 3.33 -3.68 3.66 -3 4 C-3 4.66 -3 5.32 -3 6 C-2.01 5.67 -1.02 5.34 0 5 C0 3.35 0 1.7 0 0 Z " fill="#E45D60" transform="translate(403,387)"/>
<path d="M0 0 C1.25541557 3.76624671 0.37061958 5.37188934 -1 9 C-0.34 9 0.32 9 1 9 C1.0825 9.61875 1.165 10.2375 1.25 10.875 C1.81258459 13.18437567 1.81258459 13.18437567 4.0625 14.25 C4.701875 14.4975 5.34125 14.745 6 15 C4.25 15.75 4.25 15.75 2 16 C-0.25 14.625 -0.25 14.625 -2 12 C-2.69668959 7.28460096 -2.67503116 4.01254674 0 0 Z " fill="#E16669" transform="translate(262,362)"/>
<path d="M0 0 C2.31 0 4.62 0 7 0 C7 0.66 7 1.32 7 2 C7.66 2.33 8.32 2.66 9 3 C6.69 3.33 4.38 3.66 2 4 C2 3.34 2 2.68 2 2 C1.34 2 0.68 2 0 2 C0 1.34 0 0.68 0 0 Z M-5 1 C-2.525 1.495 -2.525 1.495 0 2 C-1.32 2.33 -2.64 2.66 -4 3 C-4.33 2.34 -4.66 1.68 -5 1 Z " fill="#ED4040" transform="translate(272,391)"/>
<path d="M0 0 C0.66 0.33 1.32 0.66 2 1 C2 1.66 2 2.32 2 3 C4.31 3.33 6.62 3.66 9 4 C9 4.33 9 4.66 9 5 C8.05125 5.268125 7.1025 5.53625 6.125 5.8125 C2.74732727 6.74986588 2.74732727 6.74986588 1 10 C1 8.68 1 7.36 1 6 C0.01 6 -0.98 6 -2 6 C-1.125 1.125 -1.125 1.125 0 0 Z " fill="#E3585B" transform="translate(121,370)"/>
<path d="M0 0 C0.99 0.33 1.98 0.66 3 1 C1.71372289 2.17260611 0.42080217 3.3379283 -0.875 4.5 C-1.59429687 5.1496875 -2.31359375 5.799375 -3.0546875 6.46875 C-5 8 -5 8 -7 8 C-7 6.02 -7 4.04 -7 2 C-4.69 2 -2.38 2 0 2 C0 1.34 0 0.68 0 0 Z " fill="#E76D70" transform="translate(425,283)"/>
<path d="M0 0 C2.475 0.495 2.475 0.495 5 1 C5.07089844 1.62390625 5.14179688 2.2478125 5.21484375 2.890625 C5.80004532 5.19229321 5.80004532 5.19229321 8.06640625 6.046875 C8.89011719 6.27890625 9.71382813 6.5109375 10.5625 6.75 C11.38878906 6.99234375 12.21507812 7.2346875 13.06640625 7.484375 C13.70449219 7.65453125 14.34257812 7.8246875 15 8 C11.1496895 10.56687367 9.41430237 9.83288724 5 9 C4.67 6.69 4.34 4.38 4 2 C2.68 2.33 1.36 2.66 0 3 C0 2.01 0 1.02 0 0 Z " fill="#E8676B" transform="translate(263,366)"/>
<path d="M0 0 C-0.66 0.66 -1.32 1.32 -2 2 C-2.33 1.67 -2.66 1.34 -3 1 C-5.49113048 0.96823695 -7.96759961 1.06822746 -10.45703125 1.16015625 C-13.14754243 0.99070777 -14.70358908 0.3649995 -17 -1 C-10.30715195 -3.31207478 -6.4643171 -2.78324764 0 0 Z " fill="#E05C5F" transform="translate(328,233)"/>
<path d="M0 0 C2.0625 2 2.0625 2 3 4 C2.01 3.67 1.02 3.34 0 3 C-2.39490986 2.93029948 -4.79167691 2.91551997 -7.1875 2.9375 C-8.45980469 2.94652344 -9.73210937 2.95554687 -11.04296875 2.96484375 C-12.01878906 2.97644531 -12.99460937 2.98804688 -14 3 C-9.25645576 -0.16236283 -5.66929207 -0.79951555 0 0 Z " fill="#D96266" transform="translate(386,369)"/>
<path d="M0 0 C1.28197266 -0.03867187 1.28197266 -0.03867187 2.58984375 -0.078125 C5.52394478 0.31123438 6.86950201 1.31649829 9.0625 3.25 C8.0725 3.58 7.0825 3.91 6.0625 4.25 C5.7325 3.92 5.4025 3.59 5.0625 3.25 C2.24642832 3.21835875 -0.55651289 3.31841633 -3.37109375 3.41015625 C-5.9375 3.25 -5.9375 3.25 -7.9375 1.25 C-5.04829306 0.28693102 -3.01502119 0.0544064 0 0 Z " fill="#DA6667" transform="translate(242.9375,368.75)"/>
<path d="M0 0 C3 2 3 2 4 5 C4.08021999 6.40824893 4.10765977 7.81997231 4.09765625 9.23046875 C4.09443359 10.03291016 4.09121094 10.83535156 4.08789062 11.66210938 C4.07532227 12.91217773 4.07532227 12.91217773 4.0625 14.1875 C4.05798828 15.03248047 4.05347656 15.87746094 4.04882812 16.74804688 C4.03705403 18.83206155 4.0191189 20.91603977 4 23 C3.67 23 3.34 23 3 23 C2.92652344 21.515 2.92652344 21.515 2.8515625 20 C2.47596893 13.14476671 2.02153511 6.60368135 0 0 Z " fill="#DF5A60" transform="translate(94,168)"/>
<path d="M0 0 C2.97 0.495 2.97 0.495 6 1 C5.01 1.495 5.01 1.495 4 2 C4 2.99 4 3.98 4 5 C4.598125 5.061875 5.19625 5.12375 5.8125 5.1875 C8.87143458 6.3236757 9.55041099 8.17330142 11 11 C9 10 7 9 5 8 C5 7.34 5 6.68 5 6 C4.34 6 3.68 6 3 6 C2.01 4.02 1.02 2.04 0 0 Z " fill="#E77B7F" transform="translate(56,123)"/>
<path d="M0 0 C0.33 1.32 0.66 2.64 1 4 C1.62648438 3.97679687 2.25296875 3.95359375 2.8984375 3.9296875 C3.71570313 3.91164063 4.53296875 3.89359375 5.375 3.875 C6.18710938 3.85179687 6.99921875 3.82859375 7.8359375 3.8046875 C10 4 10 4 12 6 C8.04 6 4.08 6 0 6 C-0.33 4.35 -0.66 2.7 -1 1 C-0.67 0.67 -0.34 0.34 0 0 Z " fill="#D96A6D" transform="translate(82,359)"/>
<path d="M0 0 C0.33 0 0.66 0 1 0 C1.5 2.1875 1.5 2.1875 1 5 C-1.48053942 7.01271839 -4.17640062 8.51887086 -7 10 C-7.33 9.01 -7.66 8.02 -8 7 C-7.34 7 -6.68 7 -6 7 C-5.67 6.01 -5.34 5.02 -5 4 C-3.35 4 -1.7 4 0 4 C0 2.68 0 1.36 0 0 Z " fill="#E66368" transform="translate(171,295)"/>
<path d="M0 0 C1.00289063 0.10183594 2.00578125 0.20367187 3.0390625 0.30859375 C3.80992187 0.39238281 4.58078125 0.47617187 5.375 0.5625 C4.10546875 2.05078125 4.10546875 2.05078125 2.375 3.5625 C-1.3125 3.75 -1.3125 3.75 -4.625 3.5625 C-4.625 2.9025 -4.625 2.2425 -4.625 1.5625 C-5.615 1.2325 -6.605 0.9025 -7.625 0.5625 C-4.89657939 -0.80171031 -3.01546682 -0.31557211 0 0 Z " fill="#EA474F" transform="translate(412.625,290.4375)"/>
<path d="M0 0 C0.66 0.33 1.32 0.66 2 1 C0.6875 3.9375 0.6875 3.9375 -1 7 C-1.99 7.33 -2.98 7.66 -4 8 C-4.33 9.65 -4.66 11.3 -5 13 C-5.66 13 -6.32 13 -7 13 C-6.70876501 7.02968261 -3.97185616 4.105466 0 0 Z " fill="#E67C82" transform="translate(64,164)"/>
<path d="M0 0 C7.46819926 -0.40735632 13.70648143 0.80432095 20 5 C19.67 5.66 19.34 6.32 19 7 C18.01 6.67 17.02 6.34 16 6 C16 5.34 16 4.68 16 4 C10.72 3.01 5.44 2.02 0 1 C0 0.67 0 0.34 0 0 Z " fill="#E1858A" transform="translate(74,161)"/>
<path d="M0 0 C3.16130743 0.70251276 6.09719933 1.54859967 9 3 C10.3125 5.125 10.3125 5.125 11 7 C7.2089881 5.55049545 3.6125362 3.84827434 0 2 C0 1.34 0 0.68 0 0 Z " fill="#E57173" transform="translate(362,211)"/>
<path d="M0 0 C3.46941546 0.45822468 6.67395049 0.89131683 10 2 C10 2.66 10 3.32 10 4 C10.66 4 11.32 4 12 4 C12 4.99 12 5.98 12 7 C7.69235185 5.43358249 3.93828536 3.31663844 0 1 C0 0.67 0 0.34 0 0 Z " fill="#E25E65" transform="translate(330,194)"/>
<path d="M0 0 C1.65 0.33 3.3 0.66 5 1 C3.68 1.33 2.36 1.66 1 2 C1 2.99 1 3.98 1 5 C1.99 5 2.98 5 4 5 C4 5.66 4 6.32 4 7 C4.66 7.33 5.32 7.66 6 8 C4 9 4 9 1.9375 8.375 C0 7 0 7 -0.8125 4.5 C-1 2 -1 2 0 0 Z " fill="#D97371" transform="translate(260,386)"/>
<path d="M0 0 C0.99 1.32 1.98 2.64 3 4 C1.87926138 4.83905565 0.75325453 5.67107831 -0.375 6.5 C-1.00148438 6.9640625 -1.62796875 7.428125 -2.2734375 7.90625 C-4 9 -4 9 -6 9 C-5.67 8.01 -5.34 7.02 -5 6 C-4.01 6 -3.02 6 -2 6 C-2 4.68 -2 3.36 -2 2 C-1.34 2 -0.68 2 0 2 C0 1.34 0 0.68 0 0 Z " fill="#E8666D" transform="translate(284,118)"/>
<path d="M0 0 C-4.95644066 2.77560677 -10.44955365 3.99082794 -16 5 C-11.46961032 -0.24571436 -6.49136014 -0.22004611 0 0 Z " fill="#E47981" transform="translate(80,84)"/>
<path d="M0 0 C4.24846075 0.47205119 6.26819288 2.88877522 9 6 C9 6.66 9 7.32 9 8 C5.08158173 6.69386058 2.67359191 5.16870152 0 2 C0 1.34 0 0.68 0 0 Z " fill="#E47279" transform="translate(59,296)"/>
<path d="M0 0 C2 4 2 4 3 7 C1.75 9.625 1.75 9.625 0 12 C-0.99 12.33 -1.98 12.66 -3 13 C-2.01 8.71 -1.02 4.42 0 0 Z " fill="#E86F79" transform="translate(412,269)"/>
<path d="M0 0 C0 1.65 0 3.3 0 5 C-0.33 4.34 -0.66 3.68 -1 3 C-4.3 3 -7.6 3 -11 3 C-4.75 -0.125 -4.75 -0.125 0 0 Z " fill="#DC686B" transform="translate(418,388)"/>
<path d="M0 0 C-0.33 1.32 -0.66 2.64 -1 4 C-3.375 4.1875 -3.375 4.1875 -6 4 C-6.66 3.01 -7.32 2.02 -8 1 C-5.29120665 -0.35439668 -2.99066732 -0.06501451 0 0 Z " fill="#EA3D44" transform="translate(349,91)"/>
<path d="M0 0 C2 2 2 2 2.1953125 4.1640625 C2.16050781 5.38222656 2.16050781 5.38222656 2.125 6.625 C2.10695313 7.44226563 2.08890625 8.25953125 2.0703125 9.1015625 C2.04710937 9.72804688 2.02390625 10.35453125 2 11 C1.01 11.495 1.01 11.495 0 12 C-0.625 9.6875 -0.625 9.6875 -1 7 C-0.34 6.01 0.32 5.02 1 4 C0.34 4 -0.32 4 -1 4 C-0.67 2.68 -0.34 1.36 0 0 Z " fill="#E74C49" transform="translate(315,381)"/>
<path d="M0 0 C2.97 0.99 5.94 1.98 9 3 C8.67 3.99 8.34 4.98 8 6 C4.08597051 4.73058503 2.20927127 3.48832306 0 0 Z " fill="#E46A72" transform="translate(301,272)"/>
<path d="M0 0 C0 0.66 0 1.32 0 2 C-0.66 2 -1.32 2 -2 2 C-2 2.66 -2 3.32 -2 4 C-1.34 4.33 -0.68 4.66 0 5 C-0.99 5 -1.98 5 -3 5 C-5.1875 2.5 -5.1875 2.5 -7 0 C-2.25 -1.125 -2.25 -1.125 0 0 Z " fill="#E65F65" transform="translate(408,236)"/>
<path d="M0 0 C3.3 0.33 6.6 0.66 10 1 C9.67 2.32 9.34 3.64 9 5 C4.89198233 3.81323934 3.10551666 3.10551666 0 0 Z " fill="#E67377" transform="translate(345,203)"/>
<path d="M0 0 C1.5 1.375 1.5 1.375 3 3 C3 3.66 3 4.32 3 5 C3.66 5 4.32 5 5 5 C5 5.66 5 6.32 5 7 C5.66 7 6.32 7 7 7 C7 7.66 7 8.32 7 9 C6.34 9 5.68 9 5 9 C4.67 9.66 4.34 10.32 4 11 C3.67 10.34 3.34 9.68 3 9 C3.33 8.34 3.66 7.68 4 7 C3.34 7 2.68 7 2 7 C0 4 0 4 0 0 Z " fill="#E26F73" transform="translate(335,140)"/>
<path d="M0 0 C0.66 0 1.32 0 2 0 C5.01704885 3.1999003 6.49890042 5.61537866 7 10 C6.34 9.67 5.68 9.34 5 9 C5 8.34 5 7.68 5 7 C4.01 7 3.02 7 2 7 C2 5.68 2 4.36 2 3 C1.34 3 0.68 3 0 3 C0 2.01 0 1.02 0 0 Z " fill="#E07074" transform="translate(435,110)"/>
<path d="M0 0 C-0.99 1.485 -0.99 1.485 -2 3 C-4.1640625 3.29296875 -4.1640625 3.29296875 -6.625 3.1875 C-7.44226563 3.16042969 -8.25953125 3.13335937 -9.1015625 3.10546875 C-10.04128906 3.05326172 -10.04128906 3.05326172 -11 3 C-7.68381684 -0.31618316 -4.50821267 -1.6697084 0 0 Z " fill="#E1696E" transform="translate(342,92)"/>
<path d="M0 0 C0.99 0 1.98 0 3 0 C3 1.65 3 3.3 3 5 C1.35 5 -0.3 5 -2 5 C-1.125 1.125 -1.125 1.125 0 0 Z " fill="#F23F3C" transform="translate(203,388)"/>
<path d="M0 0 C3.3 0 6.6 0 10 0 C10.33 0.66 10.66 1.32 11 2 C6.6835078 2.76173392 3.25566547 3.16063604 -1 2 C-0.67 1.34 -0.34 0.68 0 0 Z " fill="#EB4043" transform="translate(125,381)"/>
<path d="M0 0 C3.96 0.33 7.92 0.66 12 1 C12 1.99 12 2.98 12 4 C6.06 2.515 6.06 2.515 0 1 C0 0.67 0 0.34 0 0 Z " fill="#DE6164" transform="translate(266,378)"/>
<path d="M0 0 C0.66 0.33 1.32 0.66 2 1 C-1.625 7.875 -1.625 7.875 -5 9 C-3.7508258 5.54074837 -2.32472205 2.85306797 0 0 Z " fill="#E4787E" transform="translate(61,90)"/>
<path d="M0 0 C0.33 0 0.66 0 1 0 C0.67 2.31 0.34 4.62 0 7 C-2.31 6.67 -4.62 6.34 -7 6 C-3.25 4 -3.25 4 -1 4 C-0.67 2.68 -0.34 1.36 0 0 Z " fill="#E87072" transform="translate(311,385)"/>
<path d="M0 0 C1.65 0 3.3 0 5 0 C5 1.65 5 3.3 5 5 C3.02 5.99 3.02 5.99 1 7 C1 6.34 1 5.68 1 5 C1.66 5 2.32 5 3 5 C3 4.34 3 3.68 3 3 C2.34 2.67 1.68 2.34 1 2 C0.67 1.34 0.34 0.68 0 0 Z " fill="#D96566" transform="translate(161,388)"/>
<path d="M0 0 C2.475 0.495 2.475 0.495 5 1 C5 4.96 5 8.92 5 13 C4.67 13 4.34 13 4 13 C3.67 9.7 3.34 6.4 3 3 C2.01 2.67 1.02 2.34 0 2 C0 1.34 0 0.68 0 0 Z " fill="#C95458" transform="translate(172,358)"/>
<path d="M0 0 C0 1.32 0 2.64 0 4 C-0.66 4 -1.32 4 -2 4 C-2.66 5.32 -3.32 6.64 -4 8 C-4.33 8 -4.66 8 -5 8 C-5.36625971 3.48279689 -5.36625971 3.48279689 -3.625 1.1875 C-2 0 -2 0 0 0 Z " fill="#E26066" transform="translate(433,275)"/>
<path d="M0 0 C3.48331435 3.01887244 4.79157144 5.56909529 6 10 C5.01 10 4.02 10 3 10 C2.49596232 8.70990357 1.99690074 7.41786211 1.5 6.125 C1.2215625 5.40570313 0.943125 4.68640625 0.65625 3.9453125 C0 2 0 2 0 0 Z " fill="#E57C82" transform="translate(435,213)"/>
<path d="M0 0 C0 0.33 0 0.66 0 1 C-4.32059823 2.09845718 -8.61667943 3.17812739 -13 4 C-12.67 3.01 -12.34 2.02 -12 1 C-8.32433144 -0.61729417 -3.92760325 -0.06546005 0 0 Z " fill="#E88B8F" transform="translate(361,91)"/>
<path d="M0 0 C0.66 0.33 1.32 0.66 2 1 C2.33 1.99 2.66 2.98 3 4 C2.34 4 1.68 4 1 4 C0.67 4.66 0.34 5.32 0 6 C-1.32 5.34 -2.64 4.68 -4 4 C-2.68 3.34 -1.36 2.68 0 2 C0 1.34 0 0.68 0 0 Z " fill="#E64147" transform="translate(161,389)"/>
<path d="M0 0 C0.99 0 1.98 0 3 0 C3.33 1.98 3.66 3.96 4 6 C2.35 5.67 0.7 5.34 -1 5 C-0.34 4.67 0.32 4.34 1 4 C0.67 2.68 0.34 1.36 0 0 Z " fill="#EE413D" transform="translate(249,374)"/>
<path d="M0 0 C1.32 0.33 2.64 0.66 4 1 C4 1.66 4 2.32 4 3 C4.9590625 3.1546875 4.9590625 3.1546875 5.9375 3.3125 C6.618125 3.539375 7.29875 3.76625 8 4 C8.33 4.99 8.66 5.98 9 7 C4.58110387 5.64978174 2.65654657 3.73884332 0 0 Z " fill="#E07178" transform="translate(140,297)"/>
<path d="M0 0 C0.66 0 1.32 0 2 0 C2.33 3.3 2.66 6.6 3 10 C0.31252242 6.41669656 -0.54686384 5.19150947 -1 1 C-0.67 0.67 -0.34 0.34 0 0 Z " fill="#E26D72" transform="translate(137,287)"/>
<path d="M0 0 C2.00720923 0.28674418 4.0085944 0.61866701 6 1 C4.02 1.99 4.02 1.99 2 3 C2 3.66 2 4.32 2 5 C1.01 5.33 0.02 5.66 -1 6 C-1.042721 4.33388095 -1.04063832 2.66617115 -1 1 C-0.67 0.67 -0.34 0.34 0 0 Z " fill="#E76C70" transform="translate(342,94)"/>
<path d="M0 0 C2.49361571 1.20381448 4.68143083 2.45428722 7 4 C0.9453125 4.1953125 0.9453125 4.1953125 -1 4 C-1.66 3.34 -2.32 2.68 -3 2 C-2.01 2 -1.02 2 0 2 C0 1.34 0 0.68 0 0 Z " fill="#DF4248" transform="translate(354,87)"/>
<path d="M0 0 C0.1875 2.375 0.1875 2.375 0 5 C-0.99 5.66 -1.98 6.32 -3 7 C-2.67 5.35 -2.34 3.7 -2 2 C-3.32 1.67 -4.64 1.34 -6 1 C-4 0 -4 0 0 0 Z " fill="#D86064" transform="translate(139,388)"/>
<path d="M0 0 C3 1.25 3 1.25 5 4.25 C2.03 3.755 2.03 3.755 -1 3.25 C-1 2.59 -1 1.93 -1 1.25 C-2.32 0.92 -3.64 0.59 -5 0.25 C-3 -0.75 -3 -0.75 0 0 Z " fill="#DE5658" transform="translate(282,375.75)"/>
<path d="M0 0 C1.32 0 2.64 0 4 0 C4 1.32 4 2.64 4 4 C2.35 4 0.7 4 -1 4 C-0.67 2.68 -0.34 1.36 0 0 Z " fill="#ED4141" transform="translate(74,359)"/>
<path d="M0 0 C0.99 0 1.98 0 3 0 C5 3 5 3 5 6 C5.66 6.33 6.32 6.66 7 7 C6.01 7 5.02 7 4 7 C2.02 3.535 2.02 3.535 0 0 Z " fill="#E66C72" transform="translate(304,168)"/>
<path d="M0 0 C1 3 1 3 -0.25 6.125 C-2 9 -2 9 -5 10 C-3.66511872 6.40608886 -2.03977277 3.24509304 0 0 Z " fill="#E16C71" transform="translate(309,112)"/>
<path d="M0 0 C0.33 0.66 0.66 1.32 1 2 C-2.22791555 4.1519437 -3.28400809 4.20086443 -7 4 C-6.67 3.01 -6.34 2.02 -6 1 C-4.02 0.67 -2.04 0.34 0 0 Z " fill="#F13F3F" transform="translate(134,391)"/>
<path d="M0 0 C3 1 3 1 5 4 C7.05003955 5.19232613 7.05003955 5.19232613 9 6 C6.69 6 4.38 6 2 6 C2 5.01 2 4.02 2 3 C1.34 3 0.68 3 0 3 C0 2.01 0 1.02 0 0 Z " fill="#EA7373" transform="translate(235,385)"/>
<path d="M0 0 C0.66 0.33 1.32 0.66 2 1 C2 1.66 2 2.32 2 3 C2.66 3 3.32 3 4 3 C3.34 4.32 2.68 5.64 2 7 C-0.7839183 5.60804085 -0.97898997 3.84424221 -2 1 C-1.34 0.67 -0.68 0.34 0 0 Z " fill="#EA5057" transform="translate(133,374)"/>
<path d="M0 0 C0.99 0.33 1.98 0.66 3 1 C3 1.66 3 2.32 3 3 C3.66 3.33 4.32 3.66 5 4 C4.01 4.66 3.02 5.32 2 6 C1.34 6.99 0.68 7.98 0 9 C0 6.03 0 3.06 0 0 Z " fill="#E65E65" transform="translate(177,371)"/>
<path d="M0 0 C0.66 1.65 1.32 3.3 2 5 C-2.455 4.01 -2.455 4.01 -7 3 C-2.5 0 -2.5 0 0 0 Z " fill="#EA7276" transform="translate(394,296)"/>
<path d="M0 0 C-1.75 5.75 -1.75 5.75 -4 8 C-4 5.69 -4 3.38 -4 1 C-2 0 -2 0 0 0 Z " fill="#E28185" transform="translate(99,291)"/>
<path d="M0 0 C0.33 0.99 0.66 1.98 1 3 C0.01 4.485 0.01 4.485 -1 6 C-1.66 6 -2.32 6 -3 6 C-3.33 6.66 -3.66 7.32 -4 8 C-4 6.35 -4 4.7 -4 3 C-2.68 2.67 -1.36 2.34 0 2 C0 1.34 0 0.68 0 0 Z " fill="#E28084" transform="translate(440,138)"/>
<path d="M0 0 C0 3.38023517 -0.87455622 5.83468937 -2 9 C-2.33 9 -2.66 9 -3 9 C-3.33 6.36 -3.66 3.72 -4 1 C-2.68 0.67 -1.36 0.34 0 0 Z " fill="#E78288" transform="translate(335,106)"/>
<path d="M0 0 C4.35535069 1.16142685 6.64619703 2.07699505 9 6 C5.32579134 5.69381595 4.21864487 5.24228216 1.6875 2.4375 C1.130625 1.633125 0.57375 0.82875 0 0 Z " fill="#DC5A5F" transform="translate(294,390)"/>
<path d="M0 0 C1.65 0.33 3.3 0.66 5 1 C5 1.99 5 2.98 5 4 C2.69 3.67 0.38 3.34 -2 3 C-1.34 2.01 -0.68 1.02 0 0 Z " fill="#E4443E" transform="translate(150,389)"/>
<path d="M0 0 C1.98 0.495 1.98 0.495 4 1 C3.67 2.32 3.34 3.64 3 5 C2.01 5 1.02 5 0 5 C-0.33 4.01 -0.66 3.02 -1 2 C-0.67 1.34 -0.34 0.68 0 0 Z " fill="#EA433F" transform="translate(400,388)"/>
<path d="M0 0 C0.99 0 1.98 0 3 0 C2.625 2.4375 2.625 2.4375 2 5 C1.01 5.495 1.01 5.495 0 6 C-0.38218767 4.34385343 -0.71395102 2.67542976 -1 1 C-0.67 0.67 -0.34 0.34 0 0 Z " fill="#F33E44" transform="translate(147,386)"/>
<path d="M0 0 C1.32 0 2.64 0 4 0 C4 1.98 4 3.96 4 6 C3.01 6 2.02 6 1 6 C0.67 4.02 0.34 2.04 0 0 Z " fill="#DF5F63" transform="translate(279,382)"/>
<path d="M0 0 C0 0.66 0 1.32 0 2 C-1.62626404 3.38232443 -3.2925002 4.71937515 -5 6 C-5.33 4.35 -5.66 2.7 -6 1 C-3.92446352 0.4465236 -2.15634036 0 0 0 Z " fill="#E45A5B" transform="translate(377,374)"/>
<path d="M0 0 C1.32 0 2.64 0 4 0 C4 0.99 4 1.98 4 3 C2.35 3.33 0.7 3.66 -1 4 C-0.67 2.68 -0.34 1.36 0 0 Z " fill="#E15257" transform="translate(274,124)"/>
<path d="M0 0 C2.31 0 4.62 0 7 0 C7 0.66 7 1.32 7 2 C5.02 2.33 3.04 2.66 1 3 C0.67 2.01 0.34 1.02 0 0 Z " fill="#E04346" transform="translate(413,105)"/>
<path d="M0 0 C3.36720387 1.39332574 4.9859524 2.9789286 7 6 C4.625 5.8125 4.625 5.8125 2 5 C0.6875 2.4375 0.6875 2.4375 0 0 Z " fill="#E57C84" transform="translate(90,88)"/>
<path d="" fill="#FFFFFF" transform="translate(0,0)"/>
<path d="" fill="#FFFFFF" transform="translate(0,0)"/>
<path d="" fill="#FFFFFF" transform="translate(0,0)"/>
<path d="" fill="#FFFFFF" transform="translate(0,0)"/>
<path d="" fill="#FFFFFF" transform="translate(0,0)"/>
<path d="" fill="#FFFFFF" transform="translate(0,0)"/>
<path d="" fill="#FFFFFF" transform="translate(0,0)"/>
<path d="" fill="#FFFFFF" transform="translate(0,0)"/>
<path d="" fill="#FFFFFF" transform="translate(0,0)"/>
<path d="" fill="#FFFFFF" transform="translate(0,0)"/>
<path d="" fill="#FFFFFF" transform="translate(0,0)"/>
<path d="" fill="#FFFFFF" transform="translate(0,0)"/>
<path d="" fill="#FFFFFF" transform="translate(0,0)"/>
<path d="" fill="#FFFFFF" transform="translate(0,0)"/>
<path d="" fill="#FFFFFF" transform="translate(0,0)"/>
<path d="" fill="#FFFFFF" transform="translate(0,0)"/>
<path d="" fill="#FFFFFF" transform="translate(0,0)"/>
<path d="" fill="#FFFFFF" transform="translate(0,0)"/>
<path d="" fill="#FFFFFF" transform="translate(0,0)"/>
<path d="" fill="#FFFFFF" transform="translate(0,0)"/>
<path d="" fill="#FFFFFF" transform="translate(0,0)"/>
<path d="" fill="#FFFFFF" transform="translate(0,0)"/>
<path d="" fill="#FFFFFF" transform="translate(0,0)"/>
<path d="" fill="#FFFFFF" transform="translate(0,0)"/>
<path d="" fill="#FFFFFF" transform="translate(0,0)"/>
<path d="" fill="#FFFFFF" transform="translate(0,0)"/>
<path d="" fill="#FFFFFF" transform="translate(0,0)"/>
<path d="" fill="#FFFFFF" transform="translate(0,0)"/>
<path d="" fill="#FFFFFF" transform="translate(0,0)"/>
<path d="" fill="#FFFFFF" transform="translate(0,0)"/>
<path d="" fill="#FFFFFF" transform="translate(0,0)"/>
<path d="" fill="#FFFFFF" transform="translate(0,0)"/>
<path d="" fill="#FFFFFF" transform="translate(0,0)"/>
<path d="" fill="#FFFFFF" transform="translate(0,0)"/>
<path d="" fill="#FFFFFF" transform="translate(0,0)"/>
<path d="" fill="#FFFFFF" transform="translate(0,0)"/>
<path d="" fill="#FFFFFF" transform="translate(0,0)"/>
<path d="" fill="#FFFFFF" transform="translate(0,0)"/>
<path d="" fill="#FFFFFF" transform="translate(0,0)"/>
<path d="" fill="#FFFFFF" transform="translate(0,0)"/>
<path d="" fill="#FFFFFF" transform="translate(0,0)"/>
<path d="" fill="#FFFFFF" transform="translate(0,0)"/>
<path d="" fill="#FFFFFF" transform="translate(0,0)"/>
<path d="" fill="#FFFFFF" transform="translate(0,0)"/>
<path d="" fill="#FFFFFF" transform="translate(0,0)"/>
<path d="" fill="#FFFFFF" transform="translate(0,0)"/>
<path d="" fill="#FFFFFF" transform="translate(0,0)"/>
<path d="" fill="#FFFFFF" transform="translate(0,0)"/>
<path d="" fill="#FFFFFF" transform="translate(0,0)"/>
<path d="" fill="#FFFFFF" transform="translate(0,0)"/>
<path d="" fill="#FFFFFF" transform="translate(0,0)"/>
<path d="" fill="#FFFFFF" transform="translate(0,0)"/>
<path d="" fill="#FFFFFF" transform="translate(0,0)"/>
<path d="" fill="#FFFFFF" transform="translate(0,0)"/>
<path d="" fill="#FFFFFF" transform="translate(0,0)"/>
<path d="" fill="#FFFFFF" transform="translate(0,0)"/>
<path d="" fill="#FFFFFF" transform="translate(0,0)"/>
<path d="" fill="#FFFFFF" transform="translate(0,0)"/>
<path d="" fill="#FFFFFF" transform="translate(0,0)"/>
<path d="" fill="#FFFFFF" transform="translate(0,0)"/>
<path d="" fill="#FFFFFF" transform="translate(0,0)"/>
<path d="" fill="#FFFFFF" transform="translate(0,0)"/>
<path d="" fill="#FFFFFF" transform="translate(0,0)"/>
<path d="" fill="#FFFFFF" transform="translate(0,0)"/>
<path d="" fill="#FFFFFF" transform="translate(0,0)"/>
<path d="" fill="#FFFFFF" transform="translate(0,0)"/>
<path d="" fill="#FFFFFF" transform="translate(0,0)"/>
<path d="" fill="#FFFFFF" transform="translate(0,0)"/>
<path d="" fill="#FFFFFF" transform="translate(0,0)"/>
<path d="" fill="#FFFFFF" transform="translate(0,0)"/>
<path d="" fill="#FFFFFF" transform="translate(0,0)"/>
<path d="" fill="#FFFFFF" transform="translate(0,0)"/>
<path d="" fill="#FFFFFF" transform="translate(0,0)"/>
<path d="" fill="#FFFFFF" transform="translate(0,0)"/>
<path d="" fill="#FFFFFF" transform="translate(0,0)"/>
<path d="" fill="#FFFFFF" transform="translate(0,0)"/>
<path d="" fill="#FFFFFF" transform="translate(0,0)"/>
<path d="" fill="#FFFFFF" transform="translate(0,0)"/>
<path d="" fill="#FFFFFF" transform="translate(0,0)"/>
</svg>
